<?xml version="1.0" standalone="no"?>
<!DOCTYPE svg PUBLIC "-//W3C//DTD SVG 1.1//EN" "http://www.w3.org/Graphics/SVG/1.1/DTD/svg11.dtd" >
<!--
2013-9-30: Created.
-->
<svg>
<metadata>
Created by iconfont
</metadata>
<defs>

<font id="iconfont" horiz-adv-x="1024" >
  <font-face
    font-family="iconfont"
    font-weight="500"
    font-stretch="normal"
    units-per-em="1024"
    ascent="896"
    descent="-128"
  />
    <missing-glyph />
    
    <glyph glyph-name="users" unicode="&#59576;" d="M768 125.37856l0 52.77696c70.49216 39.7312 128 138.77248 128 237.83424 0 159.06816 0 288.01024-192 288.01024s-192-128.94208-192-288.01024c0-99.06176 57.50784-198.10304 128-237.83424l0-52.77696c-217.10848-17.75616-384-124.416-384-253.37856l896 0c0 128.96256-166.89152 235.64288-384 253.37856zM327.18848 100.67968c55.31648 36.1472 124.08832 63.63136 199.7824 80.40448-15.0528 17.77664-28.71296 37.62176-40.48896 59.02336-30.4128 55.23456-46.4896 116.06016-46.4896 175.90272 0 86.03648 0 167.30112 30.59712 233.75872 29.696 64.512 83.12832 104.48896 159.232 119.48032-16.91648 76.47232-61.93152 126.75072-181.82144 126.75072-192 0-192-128.94208-192-288.01024 0-99.06176 57.50784-198.10304 128-237.83424l0-52.77696c-217.10848-17.75616-384-124.416-384-253.37856l278.99904 0c14.52032 12.9024 30.59712 25.16992 48.18944 36.67968z"  horiz-adv-x="1152" />

    
    <glyph glyph-name="servicezengyunfeixian" unicode="&#983627;" d="M738.09183 530.654105c-0.234337 0.234337-0.445138 0.471744-0.654916 0.680499-0.314155 0.236384-0.521886 0.445138-0.783853 0.629333-4.267187 3.89982-9.790994 6.282077-15.943111 6.282077-0.340761 0-0.708128-0.077771-1.101077-0.12996-0.417509 0.052189-0.862647 0.12996-1.306762 0.12996l-37.150108 0 25.079188 40.343847c7.278777 11.780301 3.901867 26.336832-7.619538 32.515554-11.543917 6.1777-26.830065 1.62194-34.189683-10.106172l-34.607192-55.708789c-1.387603-2.252297-2.068102-4.66116-2.668783-7.043417l-13.485129 0c-0.627287 2.382257-1.282203 4.792143-2.670829 7.043417l-34.660404 55.708789c-7.303336 11.728112-22.61916 16.283872-34.136471 10.106172-11.57257-6.178723-14.924921-20.735253-7.593955-32.515554l25.053606-40.343847L511.349689 538.246013c-0.445138 0-0.86367-0.077771-1.306762-0.12996-0.367367 0.052189-0.708128 0.12996-1.101077 0.12996-6.152117 0-11.6749-2.382257-15.96767-6.256494-0.210801-0.209778-0.445138-0.418532-0.734734-0.654916-0.208754-0.208754-0.416486-0.446162-0.626263-0.680499-4.189416-3.953032-6.808056-9.083889-6.808056-14.790868 0-0.315178 0.158612-0.681522 0.158612-0.994654-0.054235-0.419556-0.158612-0.785899-0.158612-1.257643l0-126.655631c0-0.733711 0.158612-1.440815 0.209778-2.146896-0.051165-0.630357-0.209778-1.177825-0.209778-1.809205 0-12.329816 11.886725-22.356171 26.545586-22.356171l206.952422 0c14.658861 0 26.516934 10.025331 26.516934 22.356171 0 0.63138-0.102331 1.177825-0.181125 1.809205 0.078795 0.706081 0.181125 1.413186 0.181125 2.146896L744.820068 513.611963c0 0.471744-0.051165 0.837064-0.102331 1.257643 0.051165 0.313132 0.102331 0.680499 0.102331 0.994654C744.819045 521.570215 742.256686 526.701073 738.09183 530.654105zM590.700945 405.383006l-57.622372 0 0 48.592718c0-12.671601 11.07422-22.935362 24.713868-22.935362 13.693884 0 24.766057 10.314926 24.766057 22.986527 0 12.618389-11.072173 22.932292-24.766057 22.932292-13.639648 0-24.713868-10.259668-24.713868-22.932292l0 39.479153 57.622372 0L590.700945 405.383006zM696.625416 405.383006l-57.622372 0 0 88.123037 57.622372 0L696.625416 405.383006zM720.526779 313.756169c0 12.354376-11.884678 22.356171-26.572192 22.356171l-158.257374 0.471744c-12.932544 0-23.664979-7.803733-26.022677-18.11866-1.936095-3.50687-3.090385-7.485485-3.090385-11.806907l0-126.681214c0-1.337461 0.185218-2.618641 0.39295-3.875261-0.207731-1.046842-0.39295-2.095731-0.39295-3.245927 0-12.33084 11.885701-22.332634 26.546609-22.332634l158.285003-0.444115c12.512988 0 22.984481 7.331989 25.759687 17.226337 2.197038 3.716648 3.559059 8.010441 3.559059 12.671601L720.73451 306.658518c0 1.679245-0.207731 3.273557-0.470721 4.844332C720.370213 312.23656 720.526779 312.99483 720.526779 313.756169zM672.46004 194.875618l-117.623931 0.336668L554.836109 227.256096l117.623931-0.313132L672.46004 194.875618zM672.46004 271.709541l-117.623931 0.314155L554.836109 291.765319l117.623931-0.313132L672.46004 271.709541zM668.010705 431.091528c13.665231 0 24.765033 10.211573 24.765033 22.907733 0 12.671601-11.099802 22.959921-24.765033 22.959921s-24.740474-10.287297-24.740474-22.959921C643.270231 441.304124 654.34445 431.091528 668.010705 431.091528zM310.970986 270.167418c11.022031 0 19.950378 8.927323 19.950378 19.920702L330.921363 546.440649l82.883709 0L413.805072 290.087097c0-10.993378 8.953929-19.920702 19.950378-19.920702 11.04659 0 19.950378 8.927323 19.950378 19.920702L453.705827 562.777733c0 0.627287-0.315178 1.176802-0.367367 1.778506 0.052189 0.62831 0.367367 1.205455 0.367367 1.832741 0 10.996448-8.902764 19.923772-19.950378 19.923772L310.970986 586.312752c-11.021008 0-19.947308-8.927323-19.947308-19.923772 0-0.627287 0.313132-1.204431 0.366344-1.832741-0.053212-0.601704-0.366344-1.151219-0.366344-1.778506L291.023678 290.087097C291.023678 279.093718 299.949978 270.167418 310.970986 270.167418zM387.520429 296.267866c-0.496304 0.547469-1.204431 0.837064-1.779529 1.359974 4.92108 20.785396 6.387477 35.814694 6.571672 38.063921L392.312572 507.721813c0 10.968819-8.928347 19.921725-19.924795 19.921725-11.048637 0-19.974937-8.953929-19.974937-19.921725l0.078795-170.248476c-0.078795-0.995677-9.634428-100.790544-72.883961-146.054447-8.953929-6.41613-10.995425-18.876929-4.582365-27.855418 3.89982-5.41943 10.027377-8.299013 16.2061-8.299013 4.030803 0 8.061606 1.202385 11.597129 3.717671 34.532491 24.711821 55.894008 60.947094 69.087495 94.16873l77.807087-90.923826c3.925403-4.606925 9.530051-6.963599 15.157211-6.963599 4.580319 0 9.18929 1.570775 12.95915 4.764514 8.376785 7.172353 9.346879 19.73753 2.172479 28.117384L387.520429 296.267866zM511.035534 816.248631c-239.490489 0-434.319803-194.829314-434.319803-434.268638 0-239.494583 194.829314-434.32185 434.319803-434.32185 239.440347 0 434.270684 194.82829 434.270684 434.32185C945.306218 621.419318 750.476905 816.248631 511.035534 816.248631zM511.035534 4.100644c-208.389144 0-377.877303 169.489182-377.877303 377.87935 0 208.337979 169.487136 377.877303 377.877303 377.877303 208.337979 0 377.877303-169.539324 377.877303-377.877303C888.91386 173.589826 719.373513 4.100644 511.035534 4.100644z"  horiz-adv-x="1024" />

    
    <glyph glyph-name="73" unicode="&#59017;" d="M539.807289 751.581867l0 20.7872c0 15.36-12.447289 27.807289-27.807289 27.807289s-27.807289-12.447289-27.807289-27.807289l0-20.7872C252.040533 739.862756 65.683911 582.428444 47.547733 384.375467c22.573511 16.201956 56.820622 26.544356 95.175111 26.544356 59.687822 0 109.420089-25.031111 120.672711-58.242844l4.949333 0c11.537067 32.995556 61.121422 57.810489 120.547556 57.810489 38.468267 0 72.726756-10.433422 95.300267-26.715022L484.192711 104.903111c0-38.843733-31.607467-70.4512-70.4512-70.4512s-70.4512 31.607467-70.4512 70.4512c0 15.36-12.447289 27.807289-27.807289 27.807289s-27.807289-12.447289-27.807289-27.807289c0-69.518222 56.558933-126.077156 126.077156-126.077156S539.807289 35.384889 539.807289 104.903111L539.807289 384.227556c22.562133 16.270222 56.809244 26.692267 95.254756 26.692267 59.687822 0 109.420089-25.031111 120.672711-58.242844l4.949333 0c11.537067 32.995556 61.121422 57.810489 120.547556 57.810489 38.377244 0 72.647111-10.353778 95.220622-26.578489C958.5664 582.178133 772.118756 739.84 539.807289 751.581867z"  horiz-adv-x="1024" />

    
    <glyph glyph-name="htmal5icon31" unicode="&#58947;" d="M513.783623 765.791449c-152.644539 0-281.283338-105.779162-322.692447-250.269997-37.023218-22.295795-58.671261-65.240887-58.671261-115.508757 0-72.89931 44.443212-132.010593 117.342522-132.010593 16.222473 0 29.335119 13.112646 29.335119 29.335119l0 205.349925c0 13.494339-9.578146 24.085558-22.002107 27.502377 42.832528 105.136525 141.707442 178.76443 256.68715 178.76443 114.979708 0 213.854623-73.627904 256.68715-178.76443-12.422937-3.416819-22.002107-14.008039-22.002107-27.502377l0-205.349925c0-16.222473 13.112646-29.335119 29.335119-29.335119 6.825452 0 12.93766 0.833995 19.25146 1.833765-9.488095-54.739718-32.476669-95.531773-55.920614-123.759675-14.622022-17.605983-29.616528-30.364565-41.253566-38.502919-5.818519-4.069689-10.344602-6.597255-13.751189-8.250918-1.703805-0.826831-3.096525-1.581008-3.666506-1.833765l-55.003731 0c-10.564613 30.631648-44.185338 53.17099-84.339874 53.17099-48.604998 0-88.007403-32.834826-88.007403-73.339332s39.402405-73.339332 88.007403-73.339332c40.154535 0 73.77526 22.540366 84.339874 53.17099l57.754379 0c9.915837 0 12.437264 2.638083 18.334577 5.500271 5.897314 2.862187 12.82612 6.782473 20.168342 11.917424 14.683421 10.269901 32.402991 25.247011 49.503461 45.836955 30.928407 37.238113 59.728336 92.562139 66.922179 166.847006 34.589796 22.957875 55.003731 64.293305 55.003731 112.75811 0 50.268894-21.648043 93.213985-58.671261 115.508757C795.067984 660.012288 666.428162 765.791449 513.783623 765.791449z"  horiz-adv-x="1024" />

    
    <glyph glyph-name="ask" unicode="&#58957;" d="M512 733.091c-192.791 0-349.091-156.3-349.091-349.091s156.3-349.091 349.091-349.091c192.791 0 349.091 156.3 349.091 349.091s-156.3 349.091-349.091 349.091zM349.044 169.332h-43.427v356.399h43.427l-0-356.399zM331.962 592.524l25.926 23.18c16.663-15.779 38.633-37.888 65.908-66.374l-29.556-25.879c-26.065 30.301-46.825 53.341-62.278 69.073zM450.42 290.723v-25.926l-41.472 0v189.533h197.073v-163.654l-155.601 0zM711.494 235.241c0-43.939-19.875-65.908-59.532-65.908-25.786 0-50.595 0.326-74.566 0.931-1.21 9.076-3.631 21.364-7.261 36.817 25.135-1.815 49.385-2.746 72.751-2.746 22.109 0 33.187 11.823 33.187 35.468v307.619h-224.535v23.924h260.003v-336.105zM451.863 315.625h119.994v115.293h-119.994v-115.293z"  horiz-adv-x="1024" />

    
    <glyph glyph-name="iconset0143" unicode="&#58922;" d="M596.992 563.2c-13.312 8.192-25.6 17.408-38.912 21.504-13.312 4.096-29.696 8.192-47.104 8.192-21.504 0-38.912-4.096-55.296-8.192-17.408-8.192-29.696-17.408-43.008-25.6-13.312-17.408-21.504-29.696-29.696-47.104-4.096-17.408-8.192-33.792-8.192-55.296l0-4.096 47.104 0 0 4.096c0 13.312 0 25.6 4.096 37.888 4.096 13.312 8.192 21.504 17.408 29.696 8.192 8.192 17.408 17.408 25.6 21.504 13.312 4.096 25.6 8.192 37.888 8.192 8.192 0 21.504 0 29.696-4.096s17.408-8.192 25.6-13.312c8.192-4.096 13.312-13.312 17.408-21.504s4.096-17.408 4.096-29.696-4.096-25.6-8.192-38.912c-8.192-13.312-17.408-21.504-25.6-29.696-13.312-13.312-21.504-21.504-29.696-29.696-8.192-8.192-17.408-17.408-21.504-29.696-4.096-8.192-8.192-21.504-13.312-33.792-4.096-13.312-4.096-25.6-4.096-43.008l0-4.096 47.104 0L528.384 281.6c0 17.408 0 29.696 4.096 38.912 0 8.192 4.096 17.408 4.096 21.504 4.096 4.096 8.192 13.312 13.312 17.408 8.192 8.192 17.408 17.408 29.696 25.6 13.312 13.312 25.6 29.696 37.888 43.008 8.192 17.408 13.312 33.792 13.312 55.296 0 17.408-4.096 33.792-8.192 47.104C618.496 541.696 610.304 555.008 596.992 563.2zM478.208 175.104l59.392 0 0 68.608-59.392 0L478.208 175.104zM503.808 840.704C251.904 840.704 47.104 635.904 47.104 384s204.8-456.704 456.704-456.704 456.704 204.8 456.704 456.704C964.608 635.904 759.808 840.704 503.808 840.704zM503.808-33.792C273.408-33.792 84.992 153.6 84.992 384S273.408 801.792 503.808 801.792 921.6 614.4 921.6 384 734.208-33.792 503.808-33.792z"  horiz-adv-x="1024" />

    
    <glyph glyph-name="iconset01100" unicode="&#58979;" d="M503.808 840.704c-256 0-460.8-204.8-460.8-456.704s204.8-456.704 456.704-456.704 460.8 204.8 460.8 456.704S755.712 840.704 503.808 840.704zM503.808-33.792c-102.4 0-196.608 38.912-273.408 102.4 55.296 51.2 80.896 64.512 145.408 90.112 72.704 29.696 98.304 90.112 68.608 153.6-4.096 13.312-13.312 21.504-17.408 33.792-21.504 38.912-47.104 84.992-47.104 187.392 0 123.904 59.392 123.904 102.4 123.904 33.792 0 47.104 4.096 59.392 13.312 8.192 4.096 13.312 4.096 21.504 4.096 38.912 0 80.896-38.912 80.896-145.408s-17.408-132.096-43.008-179.2c-8.192-13.312-13.312-25.6-21.504-37.888C567.296 281.6 563.2 256 571.392 230.4c13.312-29.696 38.912-55.296 89.088-80.896 43.008-21.504 84.992-59.392 106.496-80.896C704.512 8.192 606.208-33.792 503.808-33.792zM805.888 98.304c-25.6 25.6-72.704 68.608-119.808 90.112-38.912 17.408-64.512 38.912-68.608 55.296-4.096 13.312-4.096 29.696 8.192 47.104 8.192 13.312 13.312 25.6 21.504 38.912 25.6 47.104 47.104 80.896 47.104 200.704 0 179.2-102.4 187.392-123.904 187.392-17.408 0-25.6-4.096-37.888-8.192-13.312-4.096-21.504-8.192-47.104-8.192-47.104 0-145.408-4.096-145.408-165.888 0-115.712 29.696-166.912 51.2-208.896 4.096-13.312 13.312-21.504 17.408-29.696 21.504-47.104 4.096-76.8-47.104-98.304-63.488-29.696-94.208-43.008-157.696-98.304C128 171.008 84.992 273.408 84.992 384c0 230.4 187.392 417.792 417.792 417.792S921.6 614.4 921.6 384C917.504 273.408 874.496 175.104 805.888 98.304z"  horiz-adv-x="1024" />

    
    <glyph glyph-name="shu" unicode="&#59174;" d="M800 832l-192 0c-52.48 0-98.56-25.6-128-65.28C450.56 806.4 404.48 832 352 832l-192 0C106.88 832 64 789.12 64 736l0-512C64 170.88 106.88 128 160 128l192 0C405.12 128 448 85.12 448 32 448 14.08 462.08 0 480 0 497.92 0 512 14.08 512 32 512 85.12 554.88 128 608 128l192 0c53.12 0 96 42.88 96 96l0 512C896 789.12 853.12 832 800 832zM448 160C421.12 179.84 387.84 192 352 192l-192 0C142.08 192 128 206.08 128 224l0 512C128 753.92 142.08 768 160 768l192 0C405.12 768 448 725.12 448 672L448 160zM832 224c0-17.92-14.08-32-32-32l-192 0c-35.84 0-69.12-12.16-96-32l0 512C512 725.12 554.88 768 608 768l192 0C817.92 768 832 753.92 832 736L832 224z"  horiz-adv-x="1024" />

    
    <glyph glyph-name="shangpingouwudai2" unicode="&#59273;" d="M830.592 611.584C828.736 627.776 815.04 640 798.784 640L639.04 640 639.04 672c0 88.192-71.68 160-159.744 160S319.552 760.192 319.552 672L319.552 640 159.872 640C143.552 640 129.92 627.776 128.128 611.584l-63.936-576c-1.024-9.088 1.92-18.112 8-24.96C78.208 3.904 86.848 0 95.936 0l766.72 0c9.088 0 17.728 3.904 23.808 10.624 6.016 6.784 8.96 15.872 7.936 24.96L830.592 611.584zM351.424 448c-17.664 0-32 14.336-32 32S333.76 512 351.424 512s32-14.336 32-32S369.152 448 351.424 448zM575.168 640 383.488 640 383.488 672c0 52.928 43.008 96 95.808 96 52.864 0 95.872-43.072 95.872-96L575.168 640zM607.424 448c-17.664 0-32 14.336-32 32S589.76 512 607.424 512s32-14.336 32-32S625.152 448 607.424 448z"  horiz-adv-x="1024" />

    
    <glyph glyph-name="smile" unicode="&#58958;" d="M288.0289 495.711604c0-30.777933 24.953082-55.731014 55.732613-55.731014s55.733013 24.953082 55.733013 55.731014c0 30.778532-24.953482 55.731014-55.733013 55.731014S288.0289 526.490136 288.0289 495.711604zM622.406792 495.711604c0-30.777933 24.953881-55.731014 55.733013-55.731014 30.779132 0 55.732014 24.953082 55.732014 55.731014 0 30.778532-24.953082 55.731014-55.732014 55.731014C647.360873 551.442618 622.406792 526.490136 622.406792 495.711604zM510.941765 133.488591c-78.007911 0-156.033809 39.054521-200.61998 100.314787-16.763035 22.293685-27.822536 50.114822-39.05632 72.407708-5.528652 16.763634 5.525654 33.437329 16.763634 39.054521 16.763634 5.53025 27.823136-5.529251 33.440327-16.761636 5.528652-22.292885 16.763035-39.05552 27.822137-55.731014 44.586171-55.731014 100.318784-83.640092 161.558463-83.640092 61.266261 0 122.616666 27.820937 156.055794 78.0229 11.146443 16.762635 22.293685 38.968579 27.822936 55.731014 5.616192 16.761636 22.292885 22.292885 33.438329 16.761636 16.764634-5.528252 22.294884-22.290887 16.764634-33.437329-5.617192-27.822137-22.292885-50.114023-39.05652-72.407708C666.993562 172.45717 588.966665 133.488591 510.941765 133.488591zM510.941765-60.900214c-243.33382 0-445.129003 201.789787-445.129003 445.149589 0 243.344412 201.795183 445.134998 445.129003 445.134998 243.351408 0 445.14719-201.790586 445.14719-445.134998C956.088756 140.889573 754.293173-60.900214 510.941765-60.900214zM510.941765 770.000436c-213.638553 0-385.743466-172.100316-385.743466-385.751061 0-213.665135 172.104913-385.761054 385.743466-385.761054 213.655542 0 385.756457 172.095919 385.756457 385.761054C896.698223 597.90012 724.597307 770.000436 510.941765 770.000436z"  horiz-adv-x="1024" />

    
    <glyph glyph-name="baobiao" unicode="&#58973;" d="M995.837 144.802l-11.13 0L984.707 745.92l11.13 0c18.45 0 33.4 14.955 33.4 33.395 0 18.445-14.95 33.395-33.4 33.395L38.515 812.71C20.07 812.71 5.12 797.76 5.12 779.315c0-18.44 14.95-33.395 33.395-33.395l11.132 0 0-601.118L38.515 144.802c-18.445 0-33.395-14.945-33.395-33.39s14.95-33.39 33.395-33.39l434.134 0 0-66.8-77.92 0c-18.445 0-33.395-14.945-33.395-33.39s14.95-33.39 33.395-33.39l222.629 0c18.45 0 33.4 14.945 33.4 33.39s-14.95 33.39-33.4 33.39l-77.92 0 0 66.8 456.399 0c18.45 0 33.4 14.945 33.4 33.39S1014.287 144.802 995.837 144.802zM116.435 144.802 116.435 745.92l801.483 0 0-601.118L116.435 144.802 116.435 144.802zM762.528 595.151 557.874 390.496l-110.205 110.2c-8.692 8.692-22.787 8.692-31.482 0l-173.172-173.17c-8.692-8.7-8.692-22.795 0-31.48 8.7-8.7 22.795-8.7 31.487 0l157.427 157.42 110.2-110.205c8.695-8.685 22.79-8.685 31.485 0l220.394 220.404c8.69 8.695 8.69 22.79 0 31.487C785.318 603.843 771.218 603.843 762.528 595.151z"  horiz-adv-x="1030" />

    
    <glyph glyph-name="huanbao" unicode="&#58883;" d="M591.416889 837.916444c94.264889 0 181.873778-28.899556 254.520889-78.279111 22.641778 8.419556 45.568 15.416889 68.608 21.048889C826.368 852.707556 713.898667 896 591.416889 896 457.841778 896 336.384 844.174222 245.134222 760.092444c22.186667-5.290667 44.202667-11.889778 66.048-19.740444C388.437333 801.28 485.603556 837.916444 591.416889 837.916444M1028.721778 503.978667C1039.246222 465.692444 1045.333333 425.585778 1045.333333 384c0-246.670222-197.859556-447.544889-443.164444-453.347556l0 497.777778c100.750222-19.512889 208.384-6.940444 306.289778 44.487111 108.316444 56.888889 184.604444 150.300444 222.833778 257.024-109.568 29.127111-229.774222 19.342222-338.033778-37.546667-106.552889-55.978667-181.987556-147.399111-220.842667-252.017778l-3.982222 0c-38.798222 104.618667-114.232889 196.039111-220.842667 252.017778-108.259556 56.888889-228.522667 66.673778-338.090667 37.546667C47.672889 623.274667 124.017778 529.863111 232.334222 472.974222 330.24 421.546667 437.873778 408.974222 538.567111 428.487111l0-495.047111c-225.450667 26.282667-401.066667 218.168889-401.066667 450.56 0 30.776889 3.185778 60.871111 9.045333 89.941333C129.308444 487.253333 112.810667 501.191111 97.28 515.982222 86.016 473.827556 79.416889 429.681778 79.416889 384c0-282.339556 229.660444-512 512-512 282.339556 0 512 229.660444 512 512 0 57.059556-9.841778 111.786667-27.136 163.100444C1061.262222 532.024889 1045.504 517.575111 1028.721778 503.978667"  horiz-adv-x="1138" />

    
    <glyph glyph-name="biaoqing" unicode="&#58948;" d="M515.204746-128C377.571561-128 248.168301-74.752 150.869338 21.883259 53.551412 118.632296-0.018958 247.201185 5.0e-06 384 5.0e-06 520.779852 53.608301 649.367704 150.94519 746.078815 248.244153 842.752 377.647412 896 515.299561 896 652.989635 896 782.373931 842.752 879.71082 746.078815 1080.623412 546.398815 1080.604449 221.582222 879.71082 21.978074 782.354968-74.714074 652.89482-128 515.204746-128 515.204746-128 515.204746-128 515.204746-128 515.204746-128 515.204746-128 515.204746-128 515.204746-128 515.204746-128 515.204746-128ZM515.299561 829.269333C395.567412 829.269333 283.060153 782.980741 198.409487 698.898963 113.75882 614.836148 67.147857 502.97363 67.147857 384 67.128894 265.007407 113.720894 153.163852 198.333635 69.063111 282.965338-14.980741 395.510524-61.326222 515.204746-61.326222 634.955857-61.326222 747.557931-14.942815 832.227561 69.157926 1006.933338 242.744889 1006.933338 525.255111 832.227561 698.898963 747.576894 782.980741 635.031709 829.269333 515.299561 829.269333 515.299561 829.269333 515.299561 829.269333 515.299561 829.269333 515.299561 829.269333 515.299561 829.269333 515.299561 829.269333 515.299561 829.269333 515.299561 829.269333 515.299561 829.269333ZM332.174227 244.261926C332.174227 244.261926 392.552301 148.366222 515.185783 148.366222 637.819264 148.366222 718.24119 244.261926 718.24119 244.261926 718.24119 244.261926 763.828153 244.41363 763.80919 196.323556 763.80919 196.323556 684.771561 84.442074 515.185783 84.442074 345.600005 84.442074 290.39882 196.323556 290.39882 196.323556 290.39882 196.323556 288.730079 244.261926 332.174227 244.261926 332.174227 244.261926 332.174227 244.261926 332.174227 244.261926 332.174227 244.261926 332.174227 244.261926 332.174227 244.261926ZM365.454227 548.636444C330.714079 548.636444 302.345487 520.552296 302.345487 485.925926 302.345487 451.337481 330.695116 423.253333 365.454227 423.253333 400.365042 423.253333 428.562968 451.337481 428.562968 485.925926 428.562968 520.552296 400.365042 548.636444 365.454227 548.636444 365.454227 548.636444 365.454227 548.636444 365.454227 548.636444 365.454227 548.636444 365.454227 548.636444 365.454227 548.636444 365.454227 548.636444 365.454227 548.636444 365.454227 548.636444ZM688.791709 548.636444C653.994672 548.636444 625.720894 520.552296 625.720894 485.925926 625.720894 451.337481 653.994672 423.253333 688.791709 423.253333 723.664598 423.253333 751.900449 451.337481 751.900449 485.925926 751.900449 520.552296 723.664598 548.636444 688.791709 548.636444 688.791709 548.636444 688.791709 548.636444 688.791709 548.636444 688.791709 548.636444 688.791709 548.636444 688.791709 548.636444 688.791709 548.636444 688.791709 548.636444 688.791709 548.636444Z"  horiz-adv-x="1044" />

    
    <glyph glyph-name="Hotel" unicode="&#58912;" d="M1163.636-127.969h-1148.121c-8.564 0-15.515 6.92-15.515 15.484v31.030c0 8.595 6.951 15.515 15.515 15.515h77.576c0 0 0 0.031 0 0.031v899.879c0 34.257 27.772 62.061 62.061 62.061h589.576c34.257 0 62.061-27.803 62.061-62.061v-155.152h217.212c34.257 0 62.061-27.803 62.061-62.061v-682.667c0 0 0-0.031 0-0.031h77.576c8.564 0 15.515-6.92 15.515-15.515v-31.030c0-8.564-6.951-15.484-15.515-15.484zM341.333-65.939h217.212v310.334h-217.212v-310.334zM744.727-65.908v899.879h-589.576v-899.91h124.121c0 0 0 0.031 0 0.031v310.272c0 34.288 27.772 62.061 62.061 62.061h217.212c34.257 0 62.061-27.772 62.061-62.061v-310.272c0 0 0-0.031 0-0.031l124.121 0.031zM1024 616.758h-217.212v-682.698h217.212v682.698zM248.242 477.122v31.030c0 8.564 6.951 15.515 15.515 15.515h372.364c8.564 0 15.515-6.951 15.515-15.515v-31.030c0-8.564-6.951-15.515-15.515-15.515h-372.364c-8.564 0-15.515 6.951-15.515 15.515zM636.121 647.789h-372.364c-8.564 0-15.515 6.92-15.515 15.484v31.030c0 8.595 6.951 15.515 15.515 15.515h372.364c8.564 0 15.515-6.92 15.515-15.515v-31.030c0-8.564-6.951-15.484-15.515-15.484z"  horiz-adv-x="1180" />

    
    <glyph glyph-name="baobiao1" unicode="&#58885;" d="M569.469659 834.21364c-15.547699 0-28.152751-12.605052-28.15275-28.152751v-359.704225c0-15.547699 12.605052-28.152751 28.15275-28.152751h359.717536c15.547699 0 28.152751 12.605052 28.152751 28.152751 0 213.868143-174.002144 387.856976-387.870287 387.856976z m28.152751-359.704225V776.725551c160.408018-13.554194 288.676276-141.808117 302.23047-302.216136h-302.23047zM804.122674 334.556578c0-188.272034-153.163006-341.44835-341.435039-341.44835S121.238261 146.285568 121.238261 334.556578s153.17734 341.435039 341.44835 341.435039h28.152751v56.305502H462.686611c-219.325452 0-397.753852-178.429424-397.753851-397.740541 0-219.325452 178.429424-397.753852 397.753851-397.753852 219.311117 0 397.740541 178.429424 397.740541 397.753852v28.152751H804.12165v-28.152751z"  horiz-adv-x="1024" />

    
    <glyph glyph-name="huoche" unicode="&#58946;" d="M337.386072 197.349213a50.546137 50.546137 0 0 1 69.540676 16.733113 50.589487 50.589487 0 0 1-16.740337 69.540675C321.946236 325.390757 281.197206 398.03096 281.197206 477.917844c0 125.491117 102.09655 227.587667 227.587667 227.587666s227.587667-102.09655 227.587666-227.587666c0-77.632682-38.993354-149.160234-104.314626-191.34704a50.575037 50.575037 0 0 1-15.042461-69.923602 50.575037 50.575037 0 0 1 69.923601-15.049686c94.293544 60.89957 150.590785 164.19547 150.590785 276.320328 0 181.268158-147.469583 328.737741-328.73774 328.737741s-328.737741-147.469583-328.737741-328.737741c-0.007225-115.383335 58.811543-220.268736 157.331715-280.568631zM794.649432 65.803542H559.35991V553.968249a50.575037 50.575037 0 1 1-101.150074 0v-488.164707H222.920313a50.575037 50.575037 0 1 1 0-101.150074h571.729119a50.575037 50.575037 0 1 1 0 101.150074z"  horiz-adv-x="1024" />

    
    <glyph glyph-name="biaoqing-nanguo" unicode="&#58895;" d="M512 896C228.266667 896 0 667.733333 0 384s228.266667-512 512-512 512 228.266667 512 512S795.733333 896 512 896z m0-981.333333C253.866667-85.333333 42.666667 125.866667 42.666667 384S253.866667 853.333333 512 853.333333s469.333333-211.2 469.333333-469.333333-211.2-469.333333-469.333333-469.333333zM256 448m-64 0a64 64 0 1 1 128 0 64 64 0 1 1-128 0ZM768 448m-64 0a64 64 0 1 1 128 0 64 64 0 1 1-128 0ZM512 196.266667c-83.2 0-160-25.6-226.133333-74.666667-8.533333-6.4-10.666667-21.333333-4.266667-29.866667 6.4-8.533333 21.333333-10.666667 29.866667-4.266666 57.6 42.666667 128 66.133333 200.533333 66.133333 72.533333 0 142.933333-23.466667 200.533333-66.133333 4.266667-2.133333 8.533333-4.266667 12.8-4.266667 6.4 0 12.8 2.133333 17.066667 8.533333 6.4 8.533333 4.266667 23.466667-4.266667 29.866667-64 49.066667-142.933333 74.666667-226.133333 74.666667z"  horiz-adv-x="1024" />

    
    <glyph glyph-name="danju-tianchong" unicode="&#58923;" d="M853.333333 768h-177.066666c-19.2 0-36.266667 12.8-40.533334 32-14.933333 55.466667-64 96-123.733333 96s-108.8-40.533333-123.733333-96c-4.266667-19.2-21.333333-32-40.533334-32H170.666667C134.4 768 106.666667 740.266667 106.666667 704v-768c0-36.266667 27.733333-64 64-64h682.666666c36.266667 0 64 27.733333 64 64V704c0 36.266667-27.733333 64-64 64zM469.333333 768h85.333334c12.8 0 21.333333-8.533333 21.333333-21.333333s-8.533333-21.333333-21.333333-21.333334h-85.333334c-12.8 0-21.333333 8.533333-21.333333 21.333334s8.533333 21.333333 21.333333 21.333333z m128-661.333333H256c-12.8 0-21.333333 8.533333-21.333333 21.333333s8.533333 21.333333 21.333333 21.333333h341.333333c12.8 0 21.333333-8.533333 21.333334-21.333333s-8.533333-21.333333-21.333334-21.333333z m85.333334 192H256c-12.8 0-21.333333 8.533333-21.333333 21.333333s8.533333 21.333333 21.333333 21.333333h426.666667c12.8 0 21.333333-8.533333 21.333333-21.333333s-8.533333-21.333333-21.333333-21.333333z m85.333333 192H256c-12.8 0-21.333333 8.533333-21.333333 21.333333s8.533333 21.333333 21.333333 21.333333h512c12.8 0 21.333333-8.533333 21.333333-21.333333s-8.533333-21.333333-21.333333-21.333333z"  horiz-adv-x="1024" />

    
    <glyph glyph-name="anquan" unicode="&#58984;" d="M862.435556 695.751111h-34.133334s-79.644444 2.275556-159.288889 34.133333c-81.92 34.133333-136.533333 72.817778-136.533333 72.817778l-20.48 15.928889-20.48-13.653333s-54.613333-38.684444-136.533333-72.817778c-79.644444-34.133333-159.288889-34.133333-159.288889-34.133333H161.564444v-359.537778c0-179.768889 227.555556-370.915556 350.435556-370.915556s350.435556 191.146667 350.435556 370.915556V695.751111z m-100.124445-159.288889L509.724444 281.6c-6.826667-6.826667-15.928889-9.102222-25.031111-9.102222-6.826667 0-15.928889 2.275556-20.48 6.826666l-170.666666 136.533334c-13.653333 11.377778-18.204444 34.133333-4.551111 47.786666 11.377778 13.653333 34.133333 18.204444 47.786666 4.551112l147.911111-118.328889 232.106667 232.106666c13.653333 13.653333 34.133333 13.653333 47.786667 0s11.377778-31.857778-2.275556-45.511111z"  horiz-adv-x="1024" />

    
    <glyph glyph-name="icon-" unicode="&#58949;" d="M275.0464 506.88a20.48 20.48 0 0 0 20.48-21.504l-26.624-471.04a21.7088 21.7088 0 0 0-43.6224 2.2528l26.624 471.04a20.48 20.48 0 0 0 23.1424 19.2512zM307.2 834.56c-90.5216 0-163.84-81.92-163.84-184.32 0-94.0032 62.464-171.4176 143.36-182.6816V506.88a19.0464 19.0464 0 0 0 0 2.048c-58.368 11.264-102.4 70.0416-102.4 141.312 0 79.2576 55.0912 143.36 122.88 143.36s122.88-64.1024 122.88-143.36c0-71.2704-44.4416-130.048-102.4-141.312a19.0464 19.0464 0 0 0 0-2.048v-39.3216c80.896 11.264 143.36 88.6784 143.36 182.6816 0 102.4-73.3184 184.32-163.84 184.32zM345.9072 506.88a20.48 20.48 0 0 1-18.2272-20.48l23.552-471.04a20.48 20.48 0 0 1 20.48-19.456 20.48 20.48 0 0 1 17.408 20.6848l-23.552 471.04a20.48 20.48 0 0 1-19.6608 19.2512zM344.4736 87.8592A20.48 20.48 0 0 0 348.16 76.8v-40.96a20.48 20.48 0 0 0-2.048-8.6016 40.96 40.96 0 0 0 2.048-11.8784 40.96 40.96 0 0 0-81.92 0 40.96 40.96 0 0 0 2.048 11.8784A20.48 20.48 0 0 0 266.24 35.84v40.96a20.48 20.48 0 0 0 3.6864 11.0592 81.92 81.92 0 1 1 74.3424 0zM705.1264 506.88a20.48 20.48 0 0 0 20.48-21.504l-26.624-471.04a21.7088 21.7088 0 0 0-43.6224 2.2528l26.624 471.04a20.48 20.48 0 0 0 23.1424 19.2512zM775.9872 506.88a20.48 20.48 0 0 1-18.2272-20.48l23.552-471.04a20.48 20.48 0 0 1 20.48-19.456 20.48 20.48 0 0 1 17.408 20.6848l-23.552 471.04a20.48 20.48 0 0 1-19.6608 19.2512zM774.5536 87.8592A20.48 20.48 0 0 0 778.24 76.8v-40.96a20.48 20.48 0 0 0-2.048-8.6016 40.96 40.96 0 0 0 2.048-11.8784 40.96 40.96 0 1 0-81.92 0 40.96 40.96 0 0 0 2.048 11.8784A20.48 20.48 0 0 0 696.32 35.84v40.96a20.48 20.48 0 0 0 3.6864 11.0592 81.92 81.92 0 1 1 74.3424 0zM622.7968 793.6a20.48 20.48 0 0 0 20.48-20.48L634.88 568.32a20.48 20.48 0 0 0-40.96 0l7.168 204.8a20.48 20.48 0 0 0 21.7088 20.48zM696.32 793.6a20.48 20.48 0 0 0 20.48-20.48v-204.8a20.48 20.48 0 1 0-40.96 0V773.12a20.48 20.48 0 0 0 20.48 20.48zM856.4736 793.6A20.48 20.48 0 0 1 839.68 773.12l6.144-204.8a18.8416 18.8416 0 0 1 18.0224-20.48 20.48 20.48 0 0 1 16.7936 20.48l-6.144 204.8a18.8416 18.8416 0 0 1-18.0224 20.48zM757.76 568.32a20.48 20.48 0 1 1 40.96 0V711.68h-40.96zM798.72 773.12a20.48 20.48 0 0 1-40.96 0v-20.48h40.96zM716.8 506.88a19.2512 19.2512 0 0 0 0 2.048 126.976 126.976 0 0 0-90.5216 79.872H593.92v-27.2384a163.84 163.84 0 0 1 122.88-94.0032zM848.0768 588.8A126.976 126.976 0 0 0 757.76 508.928a19.2512 19.2512 0 0 0 0-2.048v-39.3216a163.84 163.84 0 0 1 122.88 94.0032V588.8z"  horiz-adv-x="1024" />

    
    <glyph glyph-name="xin" unicode="&#59405;" d="M870.5 689.4h-719c-48.3 0-87.5-39.3-87.5-87.6v-435.7c0-48.3 39.3-87.6 87.5-87.6h719c48.3 0 87.5 39.3 87.5 87.6V601.8c0 48.3-39.3 87.6-87.5 87.6z m0-56.4c4.1 0 8-0.8 11.6-2.3L519.9 347 154.3 633h716.2zM165.2 134.9l242.2 170.8c8.5 6 10.5 17.7 4.5 26.2s-17.7 10.5-26.2 4.5L123.9 151.8c-2.2 4.3-3.6 9.1-3.6 14.3V601.8c0 3.1 0.6 6.1 1.5 9l375-293.3c6.8-5.3 15-8 23.2-8s16.4 2.7 23.2 8l358.6 280.8v-432.2c0-0.6-0.2-1.2-0.2-1.8L657.3 336.4c-8.5 6-20.2 3.9-26.2-4.5-6-8.5-4-20.2 4.5-26.2l241.2-170.1c-2.1-0.4-4.2-0.7-6.4-0.7H165.2z"  horiz-adv-x="1024" />

    
    <glyph glyph-name="kongjian" unicode="&#58967;" d="M1024 676.571429L512 896 0 676.571429l512-219.428572 512 219.428572zM0 603.428571v-512l512-219.428571 512 219.428571V603.428571L512 384z m438.857143-620.251428l-365.714286 156.525714V492.251429l365.714286-156.525715z m146.285714 352.548571l365.714286 156.525715v-352.548572l-365.714286-156.525714z"  horiz-adv-x="1024" />

    
    <glyph glyph-name="shamenhangkong_MF" unicode="&#58911;" d="M921.6 384c0-224-185.6-409.6-409.6-409.6-224 0-409.6 185.6-409.6 409.6 0 224 185.6 409.6 409.6 409.6 230.4 0 409.6-185.6 409.6-409.6zM6.4 633.6s64-64 83.2-70.4h19.2s12.8 0 25.6-12.8c0 0 83.2-44.8 134.4-44.8l-38.4-12.8S320 384 441.6 377.6c0 0 153.6 6.4 179.2 179.2 0 0-6.4 12.8 32 19.2l172.8 25.6-38.4-51.2h-76.8l-6.4-19.2h70.4l-19.2-32h-64l-12.8-19.2h70.4l-19.2-32h-64l-6.4-19.2h64s-32-89.6 57.6-83.2c0 0 108.8 25.6 230.4 89.6 0 0-147.2-115.2-332.8-147.2 0 0-179.2-32-339.2 64 0 0-217.6 115.2-332.8 281.6zM108.8 569.6h-19.2c-19.2 6.4-83.2 64-83.2 64 32-44.8 76.8-89.6 121.6-128 0 12.8 6.4 32 19.2 51.2-6.4 0-6.4 6.4-6.4 6.4-19.2 6.4-32 6.4-32 6.4z m908.8-134.4c-32-19.2-64-32-96-44.8V371.2c57.6 32 96 64 96 64z"  horiz-adv-x="1024" />

    
    <glyph glyph-name="qizhi-" unicode="&#58695;" d="M512 789.5c54.8 0 107.9-10.7 157.8-31.8 48.3-20.4 91.6-49.7 128.9-86.9s66.5-80.6 86.9-128.9c21.1-50 31.8-103.1 31.8-157.8s-10.7-107.9-31.8-157.8c-20.4-48.3-49.7-91.6-86.9-128.9s-80.6-66.5-128.9-86.9c-50-21.1-103.1-31.8-157.8-31.8-54.8 0-107.9 10.7-157.8 31.8-48.3 20.4-91.6 49.7-128.9 86.9-37.3 37.3-66.5 80.6-86.9 128.9-21.1 50-31.8 103.1-31.8 157.8s10.7 107.9 31.8 157.8c20.4 48.3 49.7 91.6 86.9 128.9 37.3 37.3 80.6 66.5 128.9 86.9 49.9 21.1 103 31.8 157.8 31.8m0 42.5C264.6 832 64 631.4 64 384s200.6-448 448-448 448 200.6 448 448S759.4 832 512 832zM775.1 489.6c-2.8 1.9-6 3-9.2 3.1-22.4 4.4-244.3 66.4-390.4 107.7-0.4 0.1-0.7 0.2-1.1 0.3-0.1 0-0.2 0-0.4 0.1-0.5 0.1-0.9 0.2-1.4 0.2h-0.1c-0.5 0.1-1.1 0.1-1.6 0.1h-0.1-0.1c-0.5 0-1 0-1.5-0.1h-0.3c-0.5-0.1-1-0.1-1.4-0.2-0.1 0-0.2 0-0.3-0.1-0.4-0.1-0.9-0.2-1.3-0.3-0.1 0-0.2-0.1-0.3-0.1-0.4-0.1-0.8-0.3-1.1-0.4-0.1 0-0.2-0.1-0.4-0.1l-1.2-0.6c-0.1-0.1-0.2-0.1-0.3-0.2-0.4-0.2-0.8-0.5-1.2-0.7-0.1 0-0.1-0.1-0.2-0.1-0.2-0.1-0.4-0.3-0.6-0.5-0.1-0.1-0.3-0.2-0.4-0.3l-0.2-0.2c-0.4-0.3-0.7-0.6-1-1l-0.2-0.2c-0.3-0.3-0.7-0.7-1-1.1-0.3-0.4-0.6-0.7-0.8-1.1-0.1-0.1-0.1-0.2-0.2-0.3-0.2-0.4-0.5-0.8-0.7-1.1-0.1-0.1-0.1-0.2-0.2-0.4l-0.6-1.2c-0.1-0.1-0.1-0.2-0.1-0.4-0.1-0.3-0.3-0.7-0.4-1.1 0-0.1-0.1-0.3-0.1-0.4-0.1-0.4-0.2-0.9-0.3-1.3 0-0.1-0.1-0.3-0.1-0.4-0.1-0.5-0.2-0.9-0.2-1.4v-0.3c0-0.5-0.1-1-0.1-1.6V201h-35.1c-9.4 0-17-7.6-17-17s7.6-17 17-17H430c9.4 0 17 7.6 17 17s-7.6 17-17 17h-42V561.5c34.4-9.7 104.7-29.5 174.5-48.9 57.1-15.9 102.7-28.5 135.6-37.4 3-0.8 5.9-1.6 8.8-2.4l-266.7-95.2c-8.8-3.2-13.5-12.9-10.3-21.7 3.2-8.8 12.9-13.5 21.7-10.3l318.2 113.6c2 0.5 3.9 1.4 5.9 2.9 4.2 3.2 6.8 8.3 6.8 13.6-0.2 5.5-2.9 10.7-7.4 13.9z"  horiz-adv-x="1024" />

    
    <glyph glyph-name="feiji" unicode="&#59481;" d="M818.176 380.928v-38.912l-91.136 18.432 10.24 6.656v13.312c0 11.264 4.608 21.504 11.776 28.672 7.168 7.168 17.408 11.776 28.672 11.776 22.528 0.512 40.448-17.408 40.448-39.936zM656.384 470.528v-95.232l-78.848 15.872c-0.512 0-1.536 0.512-2.048 0.512v-0.512 79.36c0 11.264 4.608 21.504 11.776 28.672 7.168 7.168 17.408 11.776 28.672 11.776 22.528 0 40.448-18.432 40.448-40.448zM449.536 441.344V391.68c-0.512 0-1.536-0.512-2.048-0.512l-82.432-16.896 3.072 6.144V441.344c0 22.016 18.432 40.448 40.448 40.448 11.264 0 21.504-4.608 28.672-11.776 7.68-7.68 12.288-17.92 12.288-28.672zM287.232 380.416l7.68-19.968-88.576-17.92V394.24c0 22.528 18.432 40.448 40.448 40.448 11.264 0 21.504-4.608 28.672-11.776 7.168-7.168 11.776-17.408 11.776-28.672v-13.824zM887.296 391.68l-54.272 34.304-245.76 156.16c3.584 63.488 5.632 105.984 5.632 107.008v0.512c0 43.008-33.28 121.856-80.384 121.856-47.616 0-80.384-79.36-80.384-121.856v-0.512c0-1.024 2.048-43.52 5.632-107.008L189.44 424.448l-51.712-32.768c-6.144-4.608-12.288-13.824-12.288-22.528v-79.36c0-22.016 17.92-40.448 40.448-40.448h0.512c22.016 0 40.448 17.92 40.448 40.448V394.24c0 22.528 18.432 40.448 40.448 40.448 11.264 0 21.504-4.608 28.672-11.776 7.168-7.168 11.776-17.408 11.776-28.672v-13.312c0-7.68 2.048-14.336 5.632-20.48 7.168-11.776 19.968-19.968 34.816-19.968 11.264 0 21.504 4.608 28.672 11.776 6.144 6.144 10.24 14.336 11.776 23.04 0.512 1.536 0.512 3.584 0.512 5.12V441.344c0 22.016 18.432 40.448 40.448 40.448 11.264 0 21.504-4.608 28.672-11.776 7.168-7.168 11.776-17.408 11.776-28.672v-50.176c1.024-12.8 2.048-25.6 2.56-38.4 8.192-25.6 31.744-44.544 60.416-44.544 28.16 0 52.224 18.432 60.416 44.032l3.072 38.4V470.528c0 11.264 4.608 21.504 11.776 28.672 7.168 7.168 17.408 11.776 28.672 11.776 22.016 0 40.448-18.432 40.448-40.448v-102.912c0-11.264 4.608-21.504 11.776-28.672 7.168-7.168 17.408-11.776 28.672-11.776 19.456 0 35.328 13.824 39.424 31.744 0.512 3.072 1.024 5.632 1.024 8.704v13.312c0 11.264 4.608 21.504 11.776 28.672 7.168 7.168 17.408 11.776 28.672 11.776 22.016 0 40.448-18.432 40.448-40.448v-46.592c0-22.016 17.92-40.448 40.448-40.448h0.512c22.016 0 40.448 17.92 40.448 40.448V368.64c-1.024 9.216-7.168 18.432-13.312 23.04zM327.68 271.36m-40.448 0a40.448 40.448 0 1 1 80.896 0 40.448 40.448 0 1 1-80.896 0ZM859.136 205.312m-40.448 0a40.448 40.448 0 1 1 80.896 0 40.448 40.448 0 1 1-80.896 0ZM512.512-29.696m-15.872 0a15.872 15.872 0 1 1 31.744 0 15.872 15.872 0 1 1-31.744 0ZM616.96 96.768c-4.608 0-8.192-1.536-11.264-4.608-3.072-3.072-4.608-12.288-4.608-16.384v-5.12c0-1.024 0-2.56-0.512-3.584-0.512-1.024-0.512-2.56-1.024-3.584h33.28v17.408c0 8.704-7.168 15.872-15.872 15.872zM569.344 73.728v16.384c0 8.704-7.168 15.872-15.872 15.872-4.608 0-8.192-2.048-11.264-4.608-3.072-3.072-4.608-6.656-4.608-11.264v-23.04H484.352c9.728-48.128 18.432-63.488 28.16-63.488s17.92 14.848 27.648 60.416h30.72c-1.024 2.048-1.536 4.608-1.536 6.656v3.072zM408.064 86.528c-8.704 0-15.872-7.168-15.872-15.872v-6.144h31.744v6.656c0 4.608-1.536 8.192-4.608 11.264-3.072 2.048-7.168 4.096-11.264 4.096zM664.576 101.888c0 6.144-4.096 12.288-7.68 15.36l-99.84 55.296c5.12 48.64 10.752 108.544 15.872 178.176v1.536c-8.192-25.6-31.744-44.032-60.416-44.032-28.16 0-52.224 18.944-60.416 44.544v-2.048c5.12-69.632 10.24-129.024 15.872-178.176l-99.84-55.296c-4.096-3.072-7.68-9.216-7.68-15.36v-40.96c0-8.704 7.168-15.872 15.872-15.872 8.704 0 15.872 7.168 15.872 15.872v9.216c0 8.704 7.168 15.872 15.872 15.872 4.608 0 8.192-2.048 11.264-4.608 3.072-3.072 4.608-6.656 4.608-11.264v-36.352c0-3.072 1.024-5.632 2.048-8.192 2.56-4.608 7.68-7.68 13.824-7.68 4.096 0 8.192 1.536 11.264 4.608 2.56 2.56 4.096 5.632 4.608 9.216V51.2c0 5.12 2.56 9.728 6.144 12.288 2.56 2.048 6.144 3.584 9.728 3.584s7.168-1.536 9.728-3.584c0.512-0.512 1.024-1.024 1.536-1.024 1.536-1.536 2.56-2.56 3.072-4.608 0.512-2.048 0.512-4.096 1.536-5.632v-0.512c3.584-9.728 12.8-16.384 24.064-16.384 14.336 0 25.6 11.264 25.6 25.6V89.6c0 4.608 1.536 8.192 4.608 11.264 3.072 3.072 6.656 4.608 11.264 4.608 8.704 0 15.872-7.168 15.872-15.872V70.144c0-2.56 0.512-4.608 1.536-6.656 0.512-1.536 2.048-3.072 3.072-4.096 3.072-3.072 6.656-4.608 11.264-4.608 6.144 0 11.776 3.584 14.336 9.216 0.512 1.024 1.024 2.048 1.024 3.584 0.512 1.024 0.512 2.048 0.512 3.584v5.12c0 4.608 1.536 13.824 4.608 16.384 3.072 3.072 6.656 4.608 11.264 4.608 8.704 0 15.872-7.168 15.872-15.872v-18.432c0-8.704 7.168-15.872 15.872-15.872 8.704 0 15.872 7.168 15.872 15.872v13.312 0.512 25.088z"  horiz-adv-x="1024" />

    
    <glyph glyph-name="huoche1" unicode="&#59161;" d="M654.9 784c55 0 102.2-13.9 141.3-41.7 39.2-27.8 58.7-61.5 58.7-101.1v-400c0-38.7-18.7-71.8-56-99.1-37.4-27.4-82.8-41.7-136.5-43.3l95.1-90.2c4.8-4.5 5.9-9.6 3.5-15.6-2.4-5.9-6.9-9-13.4-9H276.3c-6.6 0-11 3.1-13.4 9s-1.2 11.1 3.5 15.6l95.1 90.2c-53.7 1.5-99 15.9-136.5 43.3-37.4 27.4-56 60.3-56 99.1V641.1c0 39.6 19.5 73.3 58.7 101.1s86.2 41.7 141.3 41.7l285.9 0.1z m114.2-342.9V669.7H254.9v-228.5l514.2-0.1zM451.3 209c16.6-16.7 36.9-25 60.7-25s44 8.4 60.7 25c16.6 16.6 25 36.9 25 60.7s-8.4 44-25 60.7c-16.7 16.6-36.9 25-60.7 25s-44-8.4-60.7-25c-16.7-16.7-25-36.9-25-60.7s8.3-44.1 25-60.7z"  horiz-adv-x="1024" />

    
    <glyph glyph-name="biaoqing_beishang_o" unicode="&#60331;" d="M640 170.666667v21.333333c0 59.733333-46.933333 106.666667-106.666667 106.666667S426.666667 251.733333 426.666667 192v-21.333333H384v21.333333c0 81.066667 68.266667 149.333333 149.333333 149.333333s149.333333-68.266667 149.333334-149.333333v-21.333333h-42.666667zM533.333333 725.333333c200.533333 0 362.666667-162.133333 362.666667-362.666666S733.866667 0 533.333333 0 170.666667 162.133333 170.666667 362.666667 332.8 725.333333 533.333333 725.333333z m0-42.666666C358.4 682.666667 213.333333 537.6 213.333333 362.666667S358.4 42.666667 533.333333 42.666667s320 145.066667 320 320S708.266667 682.666667 533.333333 682.666667z m64-256V512h42.666667v-85.333333h-42.666667z m-170.666666 0V512h42.666666v-85.333333h-42.666666z"  horiz-adv-x="1024" />

    
    <glyph glyph-name="qianbi" unicode="&#58884;" d="M227.582314 153.286924c-1.926623 0-3.612418 0.722484-5.057385 2.16745l-101.870178 101.870179c-2.889934 2.889934-2.889934 7.465663 0 10.11477 2.889934 2.889934 7.465663 2.889934 10.114769 0l101.870179-101.870179c2.889934-2.889934 2.889934-7.465663 0-10.11477-1.204139-1.444967-3.130762-2.167451-5.057385-2.16745zM537.527752 622.419567c-1.926623 0-3.612418 0.722484-5.057385 2.167451-2.889934 2.889934-2.889934 7.465663 0 10.114769l13.004704 13.004704c2.889934 2.889934 7.465663 2.889934 10.114769 0 2.889934-2.889934 2.889934-7.465663 0-10.114769l-13.004704-13.004704c-1.444967-1.444967-3.130762-2.167451-5.057384-2.167451zM853.734713 107.770461c-7.706491 0-13.727187 6.261524-13.727187 13.727187 0 7.706491 6.261524 13.727187 13.727187 13.727187s13.727187-6.261524 13.727187-13.727187c0.240828-7.465663-6.020696-13.727187-13.727187-13.727187z m0 18.062088c-2.408278 0-4.094073-1.926623-4.094073-4.094073s1.926623-4.094073 4.094073-4.094073 4.094073 1.926623 4.094073 4.094073-1.685795 4.094073-4.094073 4.094073zM888.173095 107.770461c-7.706491 0-13.727187 6.261524-13.727187 13.727187 0 7.706491 6.261524 13.727187 13.727187 13.727187s13.727187-6.261524 13.727187-13.727187-6.261524-13.727187-13.727187-13.727187z m0 18.062088c-2.408278 0-4.094073-1.926623-4.094073-4.094073s1.926623-4.094073 4.094073-4.094073 4.094073 1.926623 4.094073 4.094073-1.926623 4.094073-4.094073 4.094073zM86.938852 114.272813c-1.926623 0-3.853246 0.722484-5.057384 2.16745-1.926623 1.926623-2.649106 4.575729-1.926623 6.984008l39.014111 140.643462c0.240828 1.204139 0.963311 2.408278 1.926623 3.130762L615.796802 762.340546c2.649106 2.649106 7.465663 2.649106 10.114769 0l101.870179-101.870179c2.889934-2.889934 2.889934-7.465663 0-10.11477L232.639699 155.454374c-0.963311-0.963311-1.926623-1.444967-3.130762-1.926622l-140.643462-39.014111c-0.722484 0-1.204139-0.240828-1.926623-0.240828z m45.275635 144.255879l-35.160865-126.675446L223.969897 167.014111 712.368768 655.412982l-91.514582 91.514581L132.214487 258.528692zM659.868297 585.572907c-1.926623 0-3.612418 0.722484-5.057384 2.16745l-101.870179 101.870179c-2.889934 2.889934-2.889934 7.465663 0 10.11477 2.889934 2.889934 7.465663 2.889934 10.114769 0l101.870179-101.870179c2.889934-2.889934 2.889934-7.465663 0-10.11477-1.444967-1.444967-3.130762-2.167451-5.057385-2.16745zM435.657573 521.5127c-1.926623 0-3.612418 0.722484-5.057385 2.167451-2.889934 2.889934-2.889934 7.465663 0 10.114769l83.80809 83.80809c2.889934 2.889934 7.465663 2.889934 10.11477 0 2.889934-2.889934 2.889934-7.465663 0-10.114769L440.714958 523.680151c-1.444967-1.444967-3.130762-2.167451-5.057385-2.167451zM824.835372 114.272813H89.587959c-4.094073 0-7.224835 3.130762-7.224836 7.224835s3.130762 7.224835 7.224836 7.224836h735.247413c4.094073 0 7.224835-3.130762 7.224835-7.224836s-3.130762-7.224835-7.224835-7.224835z"  horiz-adv-x="1024" />

    
    <glyph glyph-name="shandonghangkong_SC" unicode="&#58929;" d="M512.026 895.13c31.462 0 62.13-2.637 91.878-7.885-130.406-112-229.3-179.38-167.168-445.466 67.405-292.326-86.605-316.851-214.4-438.502h524.262c89.216 70.912 198.656 168.934 172.39 320.333-20.12 118.17 33.28 175.923 79.617 219.724C1015.245 493.39 1024 440.013 1024 384c0-281.83-230.17-512-512-512C230.195-128 0 102.17 0 384 0 665.805 230.195 896 512 896v-0.87z m253.772-67.405a433.693 433.693 0 0 0 39.399-25.37c-48.999-37.632-101.53-77.03-140.903-122.547-163.686-189.875 63.002-399.949-122.547-582.886 53.402 119.91 48.999 222.31 21.888 393.856-18.406 114.636 79.642 245.913 203.06 336.947h-0.897z m142.67-120.781l26.24-34.125c-69.991-49.024-167.118-96.281-156.622-231.936 12.237-161.92-7.014-283.571-83.174-350.08 55.142 111.155 63.027 247.68 42.906 380.723-17.51 116.404 69.12 166.298 170.65 235.418z"  horiz-adv-x="1024" />

    
    <glyph glyph-name="xinxi" unicode="&#58902;" d="M191.825 740.589h639.133c31.777 0 60.641-12.979 81.549-33.885 20.908-20.908 33.886-49.78 33.886-81.547v-386.981c0-31.773-12.978-60.642-33.886-81.55s-49.771-33.881-81.549-33.881H617.095c-51.358-65.264-86.005-97.265-115.505-96.842-34.341 0.48-51.522 33.026-64.004 96.842h-245.76c-31.77 0-60.641 12.973-81.547 33.881-20.908 20.908-33.885 49.776-33.885 81.55v386.98c0 31.767 12.977 60.639 33.885 81.547 20.905 20.907 49.776 33.886 81.546 33.886zM321.3 498.705h4.778c26.955 0 48.999-22.043 48.999-48.999v-0.006c0-26.955-22.043-49.005-48.999-49.005H321.3c-26.955 0-48.999 22.05-48.999 49.005v0.006c0 26.955 22.044 48.999 48.999 48.999z m370.743 0h4.777c26.956 0 48.999-22.043 48.999-48.999v-0.006c0-26.955-22.043-49.005-48.999-49.005h-4.777c-26.955 0-48.998 22.05-48.998 49.005v0.006c0 26.955 22.043 48.999 48.998 48.999z m-188.393 0h4.779c26.953 0 48.997-22.043 48.997-48.999v-0.006c0-26.955-22.044-49.005-48.997-49.005h-4.779c-26.953 0-48.999 22.05-48.999 49.005v0.006c0 26.955 22.046 48.999 48.999 48.999z m327.308 190.478H191.825c-17.576 0-33.59-7.215-45.2-18.827-11.614-11.612-18.827-27.626-18.827-45.2v-386.981c0-17.58 7.213-33.589 18.827-45.202 11.61-11.614 27.625-18.825 45.2-18.825H480.773l3.555-21.583c8.232-49.979 13.602-75.405 17.866-75.462 11.309-0.163 36.949 28.559 82.164 87.002l7.764 10.043h238.836c17.583 0 33.592 7.211 45.202 18.825 11.613 11.613 18.828 27.622 18.828 45.202V625.156c0 17.574-7.215 33.588-18.828 45.2-11.61 11.612-27.619 18.827-45.202 18.827z"  horiz-adv-x="1024" />

    
    <glyph glyph-name="VIP" unicode="&#59003;" d="M924-36H100A100 100 0 0 0 0 64V661a100 100 0 0 0 100 100h824a100 100 0 0 0 100-100v-597a100 100 0 0 0-100-100zM100 681a20 20 0 0 1-20-20v-597a20 20 0 0 1 20-20h824a20 20 0 0 1 20 20V661a20 20 0 0 1-20 20zM968 568H55a40 40 0 0 0 0 80h913a40 40 0 0 0 0-80zM968 455H49a40 40 0 0 0 0 80h919a40 40 0 0 0 0-80zM233 73h-83a40 40 0 0 0 0 80h83a40 40 0 0 0 0-80zM492 61a40 40 0 0 0-37 26l-76 203a40 40 0 0 0 75 28l38-102 37 101a40 40 0 1 0 75-27l-74-202a40 40 0 0 0-37-26zM664 61a40 40 0 0 0-40 40V304a40 40 0 0 0 80 0v-203a40 40 0 0 0-40-40zM761 61a40 40 0 0 0-40 40V304a40 40 0 0 0 40 40h77a85 85 0 0 0 0-169h-37v-74a40 40 0 0 0-40-40z m40 194h37a5 5 0 0 1 0 9h-37z"  horiz-adv-x="1024" />

    
    <glyph glyph-name="qia" unicode="&#59078;" d="M818.52186173 678.67646882c43.12556363 0 77.59029914-37.58977662 77.59029914-84.61420101V173.28296137999996c0-46.84585039-34.28616226-84.614201-76.81647951-84.61420026H204.70431864c-42.53031724 0-76.81647951 37.76835062-76.8164795 84.61420026V594.0920304c0 46.84585039 34.28616226 84.614201 76.8164795 84.61420101h613.81754308z m0-40.2683835H204.70431864c-22.32172054 0-40.23862093-19.73240065-40.23862092-44.31605492v-420.77930644c0-24.58365427 17.91690039-44.31605491 40.23862093-44.31605566h614.59136271c22.32172054 0 40.2683835 19.73240065 40.26838277 44.31605566V594.0920304c0 24.67294126-18.03594998 44.31605491-41.0422024 44.31605491zM873.16543286 475.28095413H149.88217427c-1.87502467 0-3.72028676 0.20833583-3.72028676 0.47619681V523.5851567899999h731.64646315v-47.85776767a21.90504813 21.90504813 0 0 0-4.6429178-0.446435zM425.57029949 323.67183120000004v26.13129353c0 4.3155324 3.12504113 7.82748333 7.0536637 7.82748333h213.63374317c3.89886076 0.05952441 7.08342553-3.42266393 7.08342552-7.73819633v-26.22058053c0.02976258-4.3155324-3.12504113-7.82748333-7.02390111-7.85724592h-213.63374316c-3.92862259 0-7.11318811 3.48218835-7.11318812 7.79772075v0.05952517zM425.57029949 233.78970417000005v26.13129353c0 4.34529498 3.12504113 7.82748333 7.0536637 7.85724592H735.60411138c3.95838517 0 7.11318811-3.42266393 7.14295071-7.79772075v-26.19081871c0-4.3155324-3.12504113-7.82748333-7.08342552-7.82748331H432.68348761c-3.92862259 0-7.11318811 3.42266393-7.11318812 7.76795891v0.0595244zM303.12822346 330.01119967a39.2862273 39.2862273 0 0 1 21.39908949 34.70283392c0 21.84552371-18.36333537 39.55408828-41.04220314 39.55408828s-41.04220314-17.70856457-41.04220315-39.55408828c0-15.00019584 8.66082737-28.00631821 21.3990895-34.70283392-25.80390887-10.35727804-44.49462891-40.38743233-44.4946289-75.8938492 0-44.01843209 128.3052477-44.01843209 128.30524768-1e-8-0.02976258 35.4766543-18.69072002 65.53657041-44.52439148 75.89384921z"  horiz-adv-x="1024" />

    
    <glyph glyph-name="jiudian" unicode="&#58950;" d="M249.344 121.344h381.952V646.656H249.344v-525.312zM153.6 742.4h573.44v-716.8H153.6V742.4zM725.504 549.376v-428.032h49.152V549.376h-49.152zM629.76 645.12h240.64v-619.52h-240.64V645.12zM361.71264 431.78496H512V527.36H361.71264zM361.71264 216.74496H512V312.32H361.71264z"  horiz-adv-x="1024" />

    
    <glyph glyph-name="RectangleCopy" unicode="&#59044;" d="M829.013333 323.456a20.096 20.096 0 0 1-23.338666-16.298667 320.64 320.64 0 0 0-316.16-264.490666c-177.152 0-321.237333 144.085333-321.237334 321.194666A321.066667 321.066667 0 0 0 489.472 685.056a321.28 321.28 0 0 0 316.202667-264.533333 20.181333 20.181333 0 0 1 39.68 7.082666A361.386667 361.386667 0 0 1 489.472 725.333333 361.386667 361.386667 0 0 1 128 363.861333C128 164.522667 290.176 2.389333 489.472 2.389333a360.789333 360.789333 0 0 1 355.84 297.728 20.096 20.096 0 0 1-16.298667 23.338667M638.378667 352.213333a21.333333 21.333333 0 0 1 0 42.666667h-124.885334v23.893333l103.765334 97.92a21.333333 21.333333 0 1 1-29.312 31.061334l-98.133334-92.586667-98.133333 92.586667a21.333333 21.333333 0 0 1-29.269333-31.061334l108.416-102.314666v-19.498667H339.712a21.333333 21.333333 0 0 1 0-42.666667h131.114667v-59.989333H339.712a21.333333 21.333333 0 0 1 0-42.666667h131.114667v-93.781333a21.333333 21.333333 0 1 1 42.666666 0V249.6h124.885334a21.333333 21.333333 0 1 1 0 42.666667h-124.885334v59.989333h124.885334z"  horiz-adv-x="1024" />

    
    <glyph glyph-name="huoche2" unicode="&#59790;" d="M512-127.410647C229.552806-127.410647 0.589353 101.552806 0.589353 384 0.589353 666.299856 229.552806 895.410647 512 895.410647c282.447194 0 511.410647-228.963453 511.410647-511.410647 0-282.447194-229.110791-511.410647-511.410647-511.410647zM498.002878 315.929784L300.422446 46.006331c-5.009496-6.924892-14.733813-8.398273-21.658705-3.388777-6.924892 5.009496-8.398273 14.733813-3.388777 21.658705L472.955396 334.052374c5.009496 6.924892 14.733813 8.398273 21.658705 3.388777 6.924892-5.009496 8.398273-14.733813 3.388777-21.511367zM525.997122 315.929784l197.580432-269.776115c5.009496-6.924892 14.733813-8.398273 21.658705-3.388777 6.924892 5.009496 8.398273 14.733813 3.388777 21.658705L550.897266 334.199712c-5.009496 6.924892-14.733813 8.398273-21.658705 3.388777-6.777554-5.156835-8.250935-14.881151-3.241439-21.658705zM766.894964 311.656978c-9.282302 0-16.943885 7.661583-16.943885 16.943885v88.402878c0 9.282302 7.661583 16.943885 16.943885 16.943885s16.943885-7.661583 16.943885-16.943885v-88.402878c0-9.282302-7.661583-16.943885-16.943885-16.943885zM257.105036 311.656978c-9.282302 0-16.943885 7.661583-16.943885 16.943885v88.402878c0 9.282302 7.661583 16.943885 16.943885 16.943885s16.943885-7.661583 16.943885-16.943885v-88.402878c0-9.282302-7.661583-16.943885-16.943885-16.943885zM721.809496 639.778993l-4.71482 4.420144C698.382734 661.732374 682.617554 682.654388 670.388489 706.228489c-7.07223 13.702446-20.332662 22.248058-34.771798 22.248058H388.235971c-14.439137 0-27.699568-8.398273-34.771798-22.248058-12.229065-23.426763-27.994245-44.496115-46.706187-62.029352l-4.714821-4.420144c-28.730935-26.81554-45.232806-66.15482-45.232805-107.409497v-366.429928c0-38.749928 28.730935-70.13295 63.944748-70.132949h382.195108c35.361151 0 63.944748 31.383022 63.944748 70.132949V532.222158c0.147338 41.402014-16.354532 80.593957-45.085468 107.556835zM677.313381 526.033957h-71.606331v-10.018993c0-10.461007-8.545612-19.006619-18.85928-19.006619H437.299568c-10.461007 0-18.859281 8.545612-18.85928 19.006619v10.018993h-71.606331c-18.564604 0-33.740432-15.175827-33.740432-33.88777v-146.454101c0-18.711942 15.175827-33.88777 33.740432-33.887769h330.626762c18.564604 0 33.740432 15.175827 33.740432 33.887769v146.454101c-0.147338 18.564604-15.323165 33.88777-33.88777 33.88777zM312.946187 212.056403a39.633957 39.339281 90 1 1 78.678561 0 39.633957 39.339281 90 1 1-78.678561 0ZM632.375252 212.056403a39.633957 39.339281 90 1 1 78.678561 0 39.633957 39.339281 90 1 1-78.678561 0ZM353.611511 706.081151c-11.639712-22.542734-26.668201-42.728058-44.496115-59.81928h405.769208c-17.680576 17.091223-32.709065 37.276547-44.496115 59.81928-7.07223 13.702446-20.332662 22.248058-34.771798 22.248058H388.235971c-14.291799 0-27.55223-8.545612-34.62446-22.248058zM467.209209 311.656978l213.050935 214.229641c-1.031367 0.147338-2.062734 0.147338-3.094101 0.147338H605.559712v-10.018993c0-10.461007-8.545612-19.006619-18.85928-19.006619H540.730935L356.410935 311.656978h110.798274zM437.299568 496.861007c-10.461007 0-18.859281 8.545612-18.85928 19.006619v10.018993h-3.683453l-101.66331-102.105324v-78.236547c0-9.134964 3.683453-17.533237 9.576979-23.574101l173.858992 174.89036h-59.229928zM352.285468 408.016115h10.018992c2.210072 0 3.978129 1.768058 3.97813 3.97813 0 2.210072-1.768058 3.978129-3.97813 3.978129h-10.018992c-2.210072 0-3.978129-1.768058-3.97813-3.978129 0-2.210072 1.768058-3.978129 3.97813-3.97813zM581.838273 408.016115h19.890648c2.210072 0 3.978129 1.768058 3.978129 3.97813 0 2.210072-1.768058 3.978129-3.978129 3.978129h-19.890648c-2.210072 0-3.978129-1.768058-3.978129-3.978129 0-2.210072 1.768058-3.978129 3.978129-3.97813zM382.195108 408.016115H402.233094c2.210072 0 3.978129 1.768058 3.978129 3.97813 0 2.210072-1.768058 3.978129-3.978129 3.978129h-19.890648c-2.210072 0-3.978129-1.768058-3.978129-3.978129-0.147338-2.210072 1.620719-3.978129 3.830791-3.97813zM621.766906 408.016115h19.890648c2.210072 0 3.978129 1.768058 3.978129 3.97813 0 2.210072-1.768058 3.978129-3.978129 3.978129H621.766906c-2.210072 0-3.978129-1.768058-3.978129-3.978129 0-2.210072 1.768058-3.978129 3.978129-3.97813zM462.052374 408.016115h19.890648c2.210072 0 3.978129 1.768058 3.978129 3.97813 0 2.210072-1.768058 3.978129-3.978129 3.978129h-19.890648c-2.210072 0-3.978129-1.768058-3.978129-3.978129 0-2.210072 1.768058-3.978129 3.978129-3.97813zM541.90964 408.016115h19.890648c2.210072 0 3.978129 1.768058 3.978129 3.97813 0 2.210072-1.768058 3.978129-3.978129 3.978129h-19.890648c-2.210072 0-3.978129-1.768058-3.978129-3.978129 0-2.210072 1.768058-3.978129 3.978129-3.97813zM422.123741 408.016115H442.014388c2.210072 0 3.978129 1.768058 3.97813 3.97813 0 2.210072-1.768058 3.978129-3.97813 3.978129h-19.890647c-2.210072 0-3.978129-1.768058-3.978129-3.978129 0-2.210072 1.768058-3.978129 3.978129-3.97813zM501.981007 408.016115h19.890648c2.210072 0 3.978129 1.768058 3.978129 3.97813 0 2.210072-1.768058 3.978129-3.978129 3.978129h-19.890648c-2.210072 0-3.978129-1.768058-3.978129-3.978129 0-2.210072 1.768058-3.978129 3.978129-3.97813zM661.69554 408.016115h10.018992c2.210072 0 3.978129 1.768058 3.97813 3.97813 0 2.210072-1.768058 3.978129-3.97813 3.978129h-10.018992c-2.210072 0-3.978129-1.768058-3.97813-3.978129 0-2.210072 1.768058-3.978129 3.97813-3.97813zM589.352518 494.356259H434.647482c-9.724317 0-17.680576 7.956259-17.680576 17.680576v27.994244c0 9.724317 7.956259 17.680576 17.680576 17.680576h154.705036c9.724317 0 17.680576-7.956259 17.680576-17.680576v-27.994244c0-9.724317-7.956259-17.680576-17.680576-17.680576zM447.171223 187.156259c-4.420144 0-8.103597 3.683453-8.103597 8.103597v23.574101c0 4.420144 3.683453 8.103597 8.103597 8.103597s8.103597-3.683453 8.103597-8.103597v-23.574101c0-4.420144-3.683453-8.103597-8.103597-8.103597zM490.341295 187.156259c-4.420144 0-8.103597 3.683453-8.103597 8.103597v23.574101c0 4.420144 3.683453 8.103597 8.103597 8.103597s8.103597-3.683453 8.103597-8.103597v-23.574101c0-4.420144-3.536115-8.103597-8.103597-8.103597zM533.658705 187.156259c-4.420144 0-8.103597 3.683453-8.103597 8.103597v23.574101c0 4.420144 3.683453 8.103597 8.103597 8.103597s8.103597-3.683453 8.103597-8.103597v-23.574101c0-4.420144-3.683453-8.103597-8.103597-8.103597zM576.828777 187.156259c-4.420144 0-8.103597 3.683453-8.103597 8.103597v23.574101c0 4.420144 3.683453 8.103597 8.103597 8.103597s8.103597-3.683453 8.103597-8.103597v-23.574101c0-4.420144-3.683453-8.103597-8.103597-8.103597z"  horiz-adv-x="1024" />

    
    <glyph glyph-name="fenxiang" unicode="&#58913;" d="M779.636364-58.181818h-535.272728A174.778182 174.778182 0 0 0 69.818182 116.363636v535.272728A174.778182 174.778182 0 0 0 244.363636 826.181818H512a34.909091 34.909091 0 0 0 0-69.818182H244.363636A104.96 104.96 0 0 1 139.636364 651.636364v-535.272728a104.96 104.96 0 0 1 104.727272-104.727272h535.272728a104.96 104.96 0 0 1 104.727272 104.727272V384a34.909091 34.909091 0 0 0 69.818182 0v-267.636364a174.778182 174.778182 0 0 0-174.545454-174.545454zM500.363636 337.454545a35.141818 35.141818 0 0 0-24.669091 10.24 34.676364 34.676364 0 0 0 0 49.338182l418.909091 418.909091a34.909091 34.909091 0 0 0 49.338182-49.338182l-418.909091-418.909091a35.141818 35.141818 0 0 0-24.669091-10.24zM919.272727 756.363636h-186.181818a34.909091 34.909091 0 0 0 0 69.818182h186.181818a34.909091 34.909091 0 0 0 0-69.818182zM919.272727 570.181818a34.909091 34.909091 0 0 0-34.909091 34.909091v186.181818a34.909091 34.909091 0 0 0 69.818182 0v-186.181818a34.909091 34.909091 0 0 0-34.909091-34.909091z"  horiz-adv-x="1024" />

    
    <glyph glyph-name="VIP1" unicode="&#59510;" d="M510.955102 64.261224c-23.510204 0-45.453061 9.926531-61.64898 27.167347L138.971429 427.885714c-28.734694 31.346939-29.779592 79.412245-1.567347 111.804082l117.55102 135.314286c15.673469 18.285714 38.661224 28.734694 63.216327 28.734694H705.306122c24.032653 0 47.020408-10.44898 62.693878-28.734694l118.073469-135.314286c28.212245-32.391837 27.689796-80.457143-1.567347-111.804082L572.081633 91.428571c-15.673469-17.240816-38.138776-27.167347-61.126531-27.167347zM506.77551 253.387755c-5.22449 0-10.971429 2.089796-15.15102 6.269388l-203.755102 208.979592c-7.836735 8.359184-7.836735 21.420408 0.522449 29.779592 8.359184 7.836735 21.420408 7.836735 29.779592-0.522449l189.12653-193.828572 199.053061 194.351021c8.359184 7.836735 21.420408 7.836735 29.779592-0.522449 7.836735-8.359184 7.836735-21.420408-0.522449-29.779592l-214.204081-208.979592c-4.179592-3.657143-9.404082-5.746939-14.628572-5.746939z"  horiz-adv-x="1024" />

    
    <glyph glyph-name="Bag" unicode="&#58901;" d="M792.774194 575.5870970000001h-82.580646v29.729032c0 109.006452-89.187097 198.193548-198.193548 198.193548s-198.193548-89.187097-198.193548-198.193548v-29.729032h-82.580646c-54.503226 0-99.096774-44.593548-99.096774-99.096774v-412.903226c0-54.503226 44.593548-99.096774 99.096774-99.096774h561.548388c54.503226 0 99.096774 44.593548 99.096774 99.096774v412.903226c0 54.503226-44.593548 99.096774-99.096774 99.096774z m-135.432259-173.419355c4.954839 4.954839 13.212903 8.258065 19.819355 8.258064s14.864516-3.303226 19.819355-8.258064c4.954839-4.954839 8.258065-13.212903 8.258065-19.819355s-3.303226-14.864516-8.258065-19.819355c-11.56129-11.56129-29.729032-11.56129-41.290322 0-4.954839 4.954839-8.258065 13.212903-8.258065 19.819355s3.303226 14.864516 9.909677 19.819355zM379.870968 605.316129c0 72.670968 59.458065 132.129032 132.129032 132.129032s132.129032-59.458065 132.129032-132.129032v-29.729032H379.870968v29.729032z m-52.851613-203.148387c4.954839 4.954839 13.212903 8.258065 19.819355 8.258064s14.864516-3.303226 19.819355-8.258064c4.954839-4.954839 8.258065-13.212903 8.258064-19.819355s-3.303226-14.864516-8.258064-19.819355c-11.56129-11.56129-29.729032-11.56129-41.290323 0-4.954839 4.954839-8.258065 13.212903-8.258065 19.819355s3.303226 14.864516 9.909678 19.819355zM825.806452 63.58709699999997c0-18.167742-14.864516-33.032258-33.032258-33.032258H231.225806c-18.167742 0-33.032258 14.864516-33.032258 33.032258v412.903226c0 18.167742 14.864516 33.032258 33.032258 33.032258h82.580646v-39.63871c-13.212903-4.954839-24.774194-11.56129-34.683871-21.470968-18.167742-18.167742-28.077419-41.290323-28.07742-67.716129 0-24.774194 9.909677-49.548387 28.07742-67.716129C297.290323 294.812903 322.064516 284.903226 346.83871 284.903226c24.774194 0 47.896774 9.909677 67.716129 28.077419 18.167742 18.167742 28.077419 41.290323 28.077419 67.716129 0 24.774194-9.909677 49.548387-28.077419 67.716129-9.909677 9.909677-21.470968 16.516129-34.683871 21.470968v39.63871h264.258064v-39.63871c-13.212903-4.954839-24.774194-11.56129-34.683871-21.470968-18.167742-18.167742-28.077419-41.290323-28.077419-67.716129 0-24.774194 9.909677-49.548387 28.077419-67.716129C627.612903 294.812903 650.735484 284.903226 677.16129 284.903226s49.548387 9.909677 67.716129 28.077419c18.167742 18.167742 28.077419 41.290323 28.07742 67.716129 0 24.774194-9.909677 49.548387-28.07742 67.716129-9.909677 9.909677-21.470968 16.516129-34.683871 21.470968v39.63871h82.580646c18.167742 0 33.032258-14.864516 33.032258-33.032258v-412.903226zM776.258065 189.10967700000003c-9.909677 0-16.516129-6.606452-16.51613-16.516129v-61.109677c0-9.909677-6.606452-16.516129-16.516129-16.516129H558.245161c-9.909677 0-16.516129-6.606452-16.516129-16.516129s6.606452-16.516129 16.516129-16.516129H743.225806c28.077419 0 49.548387 21.470968 49.548388 49.548387v61.109677c0 9.909677-6.606452 16.516129-16.516129 16.516129zM776.258065 288.206452c-9.909677 0-16.516129-6.606452-16.51613-16.516129v-33.032258c0-9.909677 6.606452-16.516129 16.51613-16.51613s16.516129 6.606452 16.516129 16.51613v33.032258c0 9.909677-6.606452 16.516129-16.516129 16.516129z"  horiz-adv-x="1024" />

    
    <glyph glyph-name="icon-test" unicode="&#59118;" d="M805.925926 445.62963c114.725926-10.42963 138.42963-71.111111 0-89.125926H243.674074c-45.511111 1.896296-90.074074 22.755556-101.451852 38.874074H90.074074v13.274074H142.222222c11.377778 15.17037 58.785185 36.02963 101.451852 36.977778H805.925926zM525.274074 166.874074c3.792593 15.17037 3.792593 30.340741 0 45.511111h-5.688889l-48.355555-45.511111h54.044444z m76.8 74.903704c3.792593 15.17037 3.792593 30.340741 0 45.511111h-5.688889L547.081481 241.777778h54.992593z m41.718519 101.451852L354.607407 72.059259H274.962963l16.118518 24.651852h23.703704l0.948148 0.948148 44.562963 61.62963 1.896297 2.844444h-28.444445l15.170371 23.703704 8.533333 20.859259h22.755555l0.948149 0.948148 43.614814 97.65926 0.948149 2.844444h-26.548149l14.222223 35.081482h230.4zM398.222222 304.355556l-38.874074-93.866667h18.962963l41.718519 93.866667H398.222222z m-67.318518-146.014815l-37.925926-57.837037h18.962963l41.718518 57.837037h-22.755555zM171.614815 365.985185c-13.274074 4.740741-25.6 10.42963-34.133334 17.066667h-26.548148c-6.637037-30.340741-14.222222-59.733333-20.859259-90.074074h32.237037c17.066667 24.651852 33.185185 48.355556 49.303704 73.007407z m0 69.214815c-16.118519 24.651852-33.185185 48.355556-49.303704 73.007407H90.074074c6.637037-30.340741 14.222222-59.733333 20.859259-90.074074h26.548148c9.481481 6.637037 20.859259 12.325926 34.133334 17.066667z m159.288889-142.222222c5.688889 17.066667 4.740741 33.185185 0 48.355555h-24.651852v7.585186h-55.940741v-8.533334c-28.444444-2.844444-49.303704-11.377778-47.407407-23.703704-1.896296-10.42963 20.859259-23.703704 67.318518-23.703703h60.681482z m0 215.229629c5.688889-17.066667 4.740741-33.185185 0-48.355555h-24.651852v-7.585185h-55.940741v8.533333c-28.444444 2.844444-49.303704 11.377778-47.407407 23.703704-1.896296 10.42963 20.859259 23.703704 67.318518 23.703703h60.681482z m194.37037 127.051852c3.792593-15.17037 3.792593-30.340741 0-45.511111h-5.688889l-48.355555 45.511111h54.044444z m76.8-74.903703c3.792593-15.17037 3.792593-30.340741 0-45.511112h-5.688889l-48.355555 45.511112h54.044444z m41.718519-101.451852L354.607407 730.074074H274.962963l16.118518-24.651852h23.703704l0.948148-0.948148 44.562963-61.62963 1.896297-2.844444h-28.444445l15.170371-23.703704 8.533333-20.859259h22.755555l0.948149-0.948148 43.614814-97.659259 0.948149-2.844445h-26.548149l14.222223-35.081481h230.4zM398.222222 497.777778l-38.874074 93.866666h18.962963l41.718519-93.866666H398.222222z m-67.318518 146.014815l-37.925926 57.837037h18.962963l41.718518-57.837037h-22.755555z m413.392592-205.748149H720.592593c-0.948148-2.844444-0.948148-6.637037-1.896297-9.481481h26.548148c0 2.844444 0 5.688889-0.948148 9.481481z m72.05926-4.74074v-10.42963c4.740741 0 9.481481-0.948148 13.274074-1.896296l7.585185 8.533333c-6.637037 2.844444-13.274074 2.844444-20.859259 3.792593z m17.066666-13.274074c3.792593-1.896296 7.585185-3.792593 10.42963-6.637037l13.274074 7.585185c-5.688889 3.792593-10.42963 6.637037-16.118519 8.533333l-7.585185-9.481481z m14.222222-9.481482c1.896296-1.896296 3.792593-4.740741 5.688889-7.585185h20.85926c-3.792593 5.688889-8.533333 10.42963-12.325926 14.222222l-14.222223-6.637037z m5.688889-12.325926c-1.896296-2.844444-3.792593-4.740741-5.688889-6.637037l14.222223-7.585185c3.792593 3.792593 7.585185 8.533333 12.325926 14.222222H853.333333z m-8.533333-9.481481c-3.792593-2.844444-6.637037-5.688889-10.42963-7.585185l7.585186-9.481482c5.688889 1.896296 11.377778 4.740741 16.118518 9.481482l-13.274074 7.585185z m-14.222222-9.481482c-4.740741-1.896296-9.481481-1.896296-14.222222-2.844444v-10.42963c7.585185 0.948148 14.222222 1.896296 21.807407 3.792593l-7.585185 9.481481z m-86.281482-15.17037c0.948148 2.844444 0.948148 6.637037 1.896297 9.481481h-26.548149c0.948148-2.844444 0.948148-6.637037 1.896297-9.481481h22.755555z m37.925926 0l0.948148 9.481481h-26.548148l1.896297-9.481481h23.703703z m-75.851852 0c0.948148 2.844444 0.948148 6.637037 1.896297 9.481481h-26.548148c0.948148-2.844444 0.948148-6.637037 1.896296-9.481481h22.755555z m-36.977777 0c0.948148 2.844444 0.948148 6.637037 1.896296 9.481481H644.740741c0.948148-2.844444 0.948148-6.637037 1.896296-9.481481h22.755556z m-37.925926 0c0.948148 2.844444 0.948148 6.637037 1.896296 9.481481H606.814815c0.948148-2.844444 0.948148-6.637037 1.896296-9.481481h22.755556z m-37.925926 0c0.948148 2.844444 0.948148 6.637037 1.896296 9.481481H568.888889c0.948148-2.844444 0.948148-6.637037 1.896296-9.481481h22.755556z m-36.977778 0c0.948148 2.844444 0.948148 6.637037 1.896296 9.481481h-26.548148c0.948148-2.844444 0.948148-6.637037 1.896296-9.481481h22.755556z m-37.925926 0c0 2.844444 0.948148 6.637037 1.896296 9.481481h-26.548148c0.948148-2.844444 0.948148-6.637037 1.896296-9.481481h22.755556z m-36.977778 0c0.948148 2.844444 0.948148 6.637037 1.896297 9.481481h-26.548149c0.948148-2.844444 0.948148-6.637037 1.896297-9.481481h22.755555z m-37.925926 0c0.948148 2.844444 0.948148 6.637037 1.896297 9.481481h-26.548149c0.948148-2.844444 0.948148-6.637037 1.896297-9.481481h22.755555z m-37.925926 0c0.948148 2.844444 0.948148 6.637037 1.896297 9.481481h-26.548148c0.948148-2.844444 0.948148-6.637037 1.896296-9.481481h22.755555z m-36.977777 0l1.896296 9.481481h-26.548148l1.896296-9.481481h22.755556z m413.392592 73.955555H758.518519l-1.896297-9.481481h26.548148l-0.948148 9.481481z m-75.851852 0H682.666667c-0.948148-2.844444-0.948148-6.637037-1.896297-9.481481h26.548149c0.948148 2.844444 0 5.688889-0.948149 9.481481z m-36.977777 0h-23.703704c-0.948148-2.844444-0.948148-6.637037-1.896296-9.481481h26.548148c0 2.844444-0.948148 5.688889-0.948148 9.481481z m-37.925926 0h-23.703704c-0.948148-2.844444-0.948148-6.637037-1.896296-9.481481h26.548148c0 2.844444 0 5.688889-0.948148 9.481481z m-37.925926 0h-23.703704c-0.948148-2.844444-0.948148-6.637037-1.896296-9.481481h26.548148c0.948148 2.844444 0 5.688889-0.948148 9.481481z m-36.977778 0h-23.703704c-0.948148-2.844444-0.948148-6.637037-1.896296-9.481481h26.548148c0 2.844444-0.948148 5.688889-0.948148 9.481481z m-37.925926 0h-23.703704c-0.948148-2.844444-0.948148-6.637037-1.896296-9.481481h26.548148c0 2.844444 0 5.688889-0.948148 9.481481z m-36.977778 0h-23.703703c-0.948148-2.844444-0.948148-6.637037-1.896297-9.481481h26.548148c0 2.844444-0.948148 5.688889-0.948148 9.481481z m-37.925926 0h-23.703703c-0.948148-2.844444-0.948148-6.637037-1.896297-9.481481h26.548148c0 2.844444-0.948148 5.688889-0.948148 9.481481z m-37.925926 0h-23.703703c-0.948148-2.844444-0.948148-6.637037-1.896297-9.481481h26.548149c0 2.844444 0 5.688889-0.948149 9.481481z m-36.977777 0h-23.703704l-1.896296-9.481481H369.777778l-0.948148 9.481481z"  horiz-adv-x="1024" />

    
    <glyph glyph-name="Eyevision" unicode="&#59009;" d="M512 657.07008c-175.13472 0-327.66976-109.99808-409.6-273.07008 81.93024-163.10272 234.46528-273.07008 409.6-273.07008S839.66976 220.89728 921.6 384c-81.93024 163.072-234.46528 273.07008-409.6 273.07008z m0-443.74016c-94.26944 0-170.67008 76.40064-170.67008 170.67008S417.73056 554.67008 512 554.67008 682.67008 478.26944 682.67008 384 606.26944 213.32992 512 213.32992zM512 384m-102.4 0a102.4 102.4 0 1 1 204.8 0 102.4 102.4 0 1 1-204.8 0Z"  horiz-adv-x="1024" />

    
    <glyph glyph-name="jingwuicon_svg-" unicode="&#58882;" d="M512 641.5a27 27 0 0 1 27 27v132a27 27 0 0 1-54 0v-132a27 27 0 0 1 27-27zM641.2 606.92a27 27 0 0 1 36.88 9.88l66 114.28a27 27 0 1 1-46.77 27l-66-114.28a27 27 0 0 1 9.89-36.88zM896.83 605.32a27 27 0 0 1-36.88 9.88l-114.28-66a27 27 0 1 1 27-46.77l114.28 66a27 27 0 0 1 9.88 36.89zM345.92 616.8a27 27 0 0 1 46.77 27l-66 114.28a27 27 0 0 1-46.77-27zM251.34 502.46a27 27 0 1 1 27 46.77l-114.28 66a27 27 0 0 1-27-46.77zM790.75 142H745V341.15a231.22 231.22 0 0 1-68.29 164.58c-44.12 44.12-102.51 68.42-164.51 68.42a231.58 231.58 0 0 1-164.68-68.42C303.4 461.61 279 403.16 279 341.15V142h-45.75c-55.62 0-100.87-45.38-100.87-101s45.25-101 100.87-101h557.5c55.62 0 100.87 45.38 100.87 101s-45.25 101-100.87 101zM333 341.15c0 47.58 18.81 92.47 52.73 126.4a177.86 177.86 0 0 0 126.46 52.6c47.58 0 92.38-18.68 126.3-52.6A177.61 177.61 0 0 0 691 341.15V142H333zM790.75-6h-557.5a47 47 0 0 0 0 94h557.5a47 47 0 0 0 0-94z"  horiz-adv-x="1024" />

    
    <glyph glyph-name="all" unicode="&#59119;" d="M490.666667 362.666667v-256a64 64 0 0 0-64-64h-192a64 64 0 0 0-64 64v192a64 64 0 0 0 64 64h256z m298.666666 0a64 64 0 0 0 64-64v-192a64 64 0 0 0-64-64h-192a64 64 0 0 0-64 64V362.666667h256z m-362.666666-64h-192v-192h192v192z m362.666666 0h-192v-192h192v192zM426.666667 725.333333a64 64 0 0 0 64-64v-256H234.666667a64 64 0 0 0-64 64v192a64 64 0 0 0 64 64h192z m266.666666 0a160 160 0 1 0 0-320 160 160 0 0 0 0 320zM426.666667 661.333333h-192v-192h192v192z m266.666666 0a96 96 0 1 1 0-192 96 96 0 0 1 0 192z"  horiz-adv-x="1024" />

    
    <glyph glyph-name="feiji1" unicode="&#59231;" d="M683.932098 432.252878C564.84839 663.127415 203.701073 834.260293 259.546537 763.629268c55.945366-70.730927 223.381854-320.087415 204.700097-320.087414s-204.700098-7.492683-241.963707 7.492683C185.11922 465.820098 92.110049 610.978341 69.731902 603.585561c-22.478049-7.492683 33.467317-156.347317 33.467318-156.347317v-126.476488s-55.945366-148.854634-33.467318-156.347317c22.278244-7.492683 115.387317 137.765463 152.650927 152.650927 37.26361 14.985366 223.381854 7.492683 241.963708 7.492683s-148.854634-249.356488-204.700098-320.087415c-55.745561-70.730927 305.301854 100.501854 424.385561 331.276488 3.69639 0 264.341854-18.681756 275.431024 48.452683-11.288976 66.734829-271.834537 48.053073-275.530926 48.053073z"  horiz-adv-x="1024" />

    
    <glyph glyph-name="suo" unicode="&#58889;" d="M901.619512 437.248h-84.917073v279.726829a159.843902 159.843902 0 0 1-159.843902 159.843903H347.160976a159.843902 159.843902 0 0 1-159.843903-159.843903v-279.726829H102.4c-22.103415 0-39.960976-17.857561-39.960976-39.960976v-479.531707c0-22.103415 17.857561-39.960976 39.960976-39.960976h799.219512c22.103415 0 39.960976 17.857561 39.960976 39.960976v479.531707c0 22.103415-17.857561 39.960976-39.960976 39.960976zM536.97561 141.287024v-66.185365c0-5.494634-4.49561-9.990244-9.990244-9.990244h-49.95122c-5.494634 0-9.990244 4.49561-9.990244 9.990244v66.185365a59.941463 59.941463 0 1 0 69.931708 0z m189.814634 295.960976h-449.560976v279.726829c0 38.587317 31.34439 69.931707 69.931708 69.931708h309.697561c38.587317 0 69.931707-31.34439 69.931707-69.931708v-279.726829z"  horiz-adv-x="1024" />

    
    <glyph glyph-name="jiage" unicode="&#58890;" d="M252.090182 643.909818a384 384 0 1 0 543.092363-543.092363A384 384 0 0 0 252.090182 643.909818z m493.707636-49.384727a314.181818 314.181818 0 1 1-444.322909-444.322909 314.181818 314.181818 0 0 1 444.322909 444.322909z m-71.773091-44.869818a34.909091 34.909091 0 0 0-5.585454-45.195637l-4.096-3.211636-113.570909-75.636364h94.208a34.909091 34.909091 0 0 0 4.701091-69.538909l-4.701091-0.325818-104.773819 0.046546v-69.818182h104.727273a34.909091 34.909091 0 0 0 4.747637-69.538909l-4.701091-0.325819-104.773819 0.046546v-58.181818a34.909091 34.909091 0 0 0-69.492363-4.747637l-0.279273 4.701091-0.046545 58.228364h-104.727273a34.909091 34.909091 0 0 0-4.701091 69.492364l4.747636 0.279272 104.680728 0.046546v69.818182h-104.727273a34.909091 34.909091 0 0 0-4.701091 69.492363l4.747636 0.279273 94.114909 0.046545-113.477818 75.636364a34.909091 34.909091 0 0 0 34.210909 60.648727l4.514909-2.56 120.22691-80.151272 120.32 80.151272a34.909091 34.909091 0 0 0 48.407272-9.681454z"  horiz-adv-x="1024" />

    
    <glyph glyph-name="jiage1" unicode="&#60259;" d="M512 704c176 0 320-144 320-320s-144-320-320-320S192 208 192 384 336 704 512 704z m0-64c-140.8 0-256-115.2-256-256s115.2-256 256-256 256 115.2 256 256-115.2 256-256 256z m-86.4-92.8l86.4-86.4 86.4 86.4c12.8 12.8 32 12.8 44.8 0 12.8-12.8 12.8-32 0-44.8L556.8 416H640c19.2 0 32-12.8 32-32s-12.8-32-32-32h-96v-32h96c19.2 0 32-12.8 32-32s-12.8-32-32-32h-96v-64c0-19.2-12.8-32-32-32s-32 12.8-32 32v64h-96c-19.2 0-32 12.8-32 32s12.8 32 32 32h96v32h-96c-19.2 0-32 12.8-32 32s12.8 32 32 32h83.2l-86.4 86.4c-12.8 12.8-12.8 32 0 44.8s32 12.8 44.8 0z"  horiz-adv-x="1024" />

    
    <glyph glyph-name="xin1" unicode="&#58963;" d="M834.3 577.1v-410.3h-625V577.1h625m10.6 63.4H198.8c-29 0-52.8-23.8-52.8-52.8v-431.4c0-29 23.8-52.8 52.8-52.8h646.1c29 0 52.8 23.8 52.8 52.8V587.7c0 29-23.8 52.8-52.8 52.8zM521.8 351.1c-5.8 0-11.6 1.6-16.8 4.8L161.4 570.6c-14.8 9.3-19.3 28.8-10.1 43.6 9.3 14.9 28.8 19.3 43.6 10.1L521.8 420l326.9 204.3c14.8 9.2 34.4 4.7 43.6-10.1 9.3-14.8 4.8-34.4-10.1-43.6L538.6 355.9c-5.1-3.2-10.9-4.8-16.8-4.8z"  horiz-adv-x="1024" />

    
    <glyph glyph-name="book" unicode="&#59233;" d="M810.666667 768H298.666667a128 128 0 0 1-128-128v-512a128 128 0 0 1 128-128h512a42.666667 42.666667 0 0 1 42.666666 42.666667V725.333333a42.666667 42.666667 0 0 1-42.666666 42.666667zM298.666667 85.333333a42.666667 42.666667 0 0 0 0 85.333334h469.333333v-85.333334z"  horiz-adv-x="1024" />

    
    <glyph glyph-name="book-open" unicode="&#59234;" d="M896 710.826667a52.906667 52.906667 0 0 1-46.08 9.813333L554.666667 644.693333v-608.853333l322.56 82.773333A53.333333 53.333333 0 0 1 917.333333 170.666667V669.013333a53.333333 53.333333 0 0 1-21.333333 41.813334zM469.333333 644.693333L173.226667 720.64A54.186667 54.186667 0 0 1 128 710.826667a53.333333 53.333333 0 0 1-20.48-42.666667V170.666667a53.333333 53.333333 0 0 1 40.106667-51.626667L469.333333 35.84z"  horiz-adv-x="1024" />

    
    <glyph glyph-name="checkmark" unicode="&#59237;" d="M420.693333 128a42.666667 42.666667 0 0 0-31.146666 13.653333l-207.36 220.586667a42.666667 42.666667 0 1 0 62.293333 58.453333l175.786667-187.306666 358.826666 392.533333a42.666667 42.666667 0 1 0 63.146667-57.173333l-389.973333-426.666667a42.666667 42.666667 0 0 0-31.146667-14.08z"  horiz-adv-x="1024" />

    
    <glyph glyph-name="close" unicode="&#59238;" d="M572.16 384l183.466667 183.04a42.666667 42.666667 0 1 1-60.586667 60.586667L512 444.16l-183.04 183.466667a42.666667 42.666667 0 0 1-60.586667-60.586667l183.466667-183.04-183.466667-183.04a42.666667 42.666667 0 0 1 0-60.586667 42.666667 42.666667 0 0 1 60.586667 0l183.04 183.466667 183.04-183.466667a42.666667 42.666667 0 0 1 60.586667 0 42.666667 42.666667 0 0 1 0 60.586667z"  horiz-adv-x="1024" />

    
    <glyph glyph-name="code" unicode="&#59239;" d="M368.64 672.853333a42.666667 42.666667 0 0 1-60.16-5.546666l-213.333333-256a42.666667 42.666667 0 0 1 0-54.186667l206.08-256a42.666667 42.666667 0 0 1 33.28-15.786667 42.666667 42.666667 0 0 1 33.28 69.546667L183.04 384l191.146667 228.693333a42.666667 42.666667 0 0 1-5.546667 60.16zM929.28 410.88l-203.946667 256a42.666667 42.666667 0 0 1-60.16 6.4 42.666667 42.666667 0 0 1-6.4-60.16L840.96 384l-191.146667-229.12a42.666667 42.666667 0 0 1 5.546667-60.16A42.666667 42.666667 0 0 1 682.666667 85.333333a42.666667 42.666667 0 0 1 32.853333 15.36l213.333333 256a42.666667 42.666667 0 0 1 0.426667 54.186667z"  horiz-adv-x="1024" />

    
    <glyph glyph-name="eye" unicode="&#59247;" d="M512 384m-64 0a64 64 0 1 1 128 0 64 64 0 1 1-128 0ZM933.12 405.333333c-27.306667 47.36-177.493333 285.013333-432.64 277.333334-235.946667-5.973333-372.48-213.333333-409.6-277.333334a42.666667 42.666667 0 0 1 0-42.666666c26.88-46.506667 170.666667-277.333333 421.973333-277.333334h10.666667c235.946667 5.973333 372.906667 213.333333 409.6 277.333334a42.666667 42.666667 0 0 1 0 42.666666z m-421.12-170.666666a149.333333 149.333333 0 1 0 149.333333 149.333333 149.333333 149.333333 0 0 0-149.333333-149.333333z"  horiz-adv-x="1024" />

    
    <glyph glyph-name="file-text" unicode="&#59248;" d="M842.24 583.253333l-189.44 213.333334a42.666667 42.666667 0 0 1-31.573333 14.08h-341.333334A107.946667 107.946667 0 0 1 170.666667 704v-640A107.946667 107.946667 0 0 1 279.893333-42.666667h464.213334A107.946667 107.946667 0 0 1 853.333333 64V554.666667a42.666667 42.666667 0 0 1-11.093333 28.586666zM384 384h128a42.666667 42.666667 0 0 0 0-85.333333H384a42.666667 42.666667 0 0 0 0 85.333333z m256-256H384a42.666667 42.666667 0 0 0 0 85.333333h256a42.666667 42.666667 0 0 0 0-85.333333z m-12.373333 426.666667a33.706667 33.706667 0 0 0-30.293334 36.266666V725.333333l159.573334-170.666666z"  horiz-adv-x="1024" />

    
    <glyph glyph-name="eye-off" unicode="&#59249;" d="M512 384m-64 0a64 64 0 1 1 128 0 64 64 0 1 1-128 0ZM652.373333 122.88L597.333333 180.053333l-2.986666 2.986667-54.186667 54.186667a173.653333 173.653333 0 0 0-26.026667-2.56A149.333333 149.333333 0 0 0 362.666667 384a173.653333 173.653333 0 0 0 2.56 26.026667l-85.333334 85.333333L213.333333 560.213333a677.973333 677.973333 0 0 1-122.453333-154.88 42.666667 42.666667 0 0 1 0-42.666666c26.88-46.506667 170.666667-277.333333 421.973333-277.333334h10.666667a404.48 404.48 0 0 1 137.813333 28.586667zM366.506667 650.24l119.466666-119.466667A173.653333 173.653333 0 0 0 512 533.333333a149.333333 149.333333 0 0 0 149.333333-149.333333 173.653333 173.653333 0 0 0-2.56-26.026667l114.346667-114.346666 35.84-35.84a677.973333 677.973333 0 0 1 124.16 154.88 42.666667 42.666667 0 0 1 0 42.666666c-27.306667 47.36-177.493333 285.013333-432.64 277.333334a404.48 404.48 0 0 1-137.813333-28.586667zM883.626667 72.96L828.16 128l-85.333333 85.333333-406.186667 406.613334L273.92 682.666667 200.96 755.626667a42.666667 42.666667 0 0 1-60.586667-60.586667L235.946667 597.333333l74.666666-72.533333 311.893334-311.466667 2.986666-2.986666L682.666667 153.173333l25.173333-25.173333 115.2-115.626667a42.666667 42.666667 0 0 1 60.586667 0 42.666667 42.666667 0 0 1 0 60.586667z"  horiz-adv-x="1024" />

    
    <glyph glyph-name="file" unicode="&#59250;" d="M842.24 583.253333l-189.44 213.333334a42.666667 42.666667 0 0 1-31.573333 14.08h-341.333334A107.946667 107.946667 0 0 1 170.666667 704v-640A107.946667 107.946667 0 0 1 279.893333-42.666667h464.213334A107.946667 107.946667 0 0 1 853.333333 64V554.666667a42.666667 42.666667 0 0 1-11.093333 28.586666zM597.333333 725.333333l159.573334-170.666666h-128a33.706667 33.706667 0 0 0-31.573334 36.266666z"  horiz-adv-x="1024" />

    
    <glyph glyph-name="info" unicode="&#59256;" d="M512 810.666667a426.666667 426.666667 0 1 1 426.666667-426.666667A426.666667 426.666667 0 0 1 512 810.666667z m42.666667-597.333334a42.666667 42.666667 0 0 0-85.333334 0v213.333334a42.666667 42.666667 0 0 0 85.333334 0z m-42.666667 298.666667a42.666667 42.666667 0 1 0 42.666667 42.666667 42.666667 42.666667 0 0 0-42.666667-42.666667z"  horiz-adv-x="1024" />

    
    <glyph glyph-name="link-" unicode="&#59257;" d="M567.04 499.626667l-170.666667-170.666667a42.666667 42.666667 0 0 1 0-60.586667 42.666667 42.666667 0 0 1 60.586667 0l170.666667 170.666667a42.666667 42.666667 0 0 1-60.586667 60.586667zM523.946667 153.6L469.333333 99.413333a179.2 179.2 0 0 0-238.08-17.066666 170.666667 170.666667 0 0 0-11.52 253.013333l60.586667 61.013333a42.666667 42.666667 0 0 1 0 60.586667 42.666667 42.666667 0 0 1-60.586667 0l-54.186666-54.613333a262.4 262.4 0 0 1-28.586667-344.32 258.56 258.56 0 0 1 386.986667-25.6l60.586666 60.586666a42.666667 42.666667 0 0 1-60.586666 60.586667zM838.826667 758.613333a263.68 263.68 0 0 1-346.88-29.013333L445.866667 682.666667a46.506667 46.506667 0 0 1-7.253334-68.693334 42.666667 42.666667 0 0 1 60.586667 0L554.666667 669.866667a177.92 177.92 0 0 0 237.653333 17.066666 170.666667 170.666667 0 0 0 11.52-253.866666l-60.586667-61.013334a42.666667 42.666667 0 0 1 0-60.586666 42.666667 42.666667 0 0 1 60.586667 0l60.586667 60.586666a258.56 258.56 0 0 1-25.6 386.56z"  horiz-adv-x="1024" />

    
    <glyph glyph-name="link" unicode="&#59258;" d="M341.333333 384a42.666667 42.666667 0 0 1 42.666667-42.666667h256a42.666667 42.666667 0 0 1 0 85.333334H384a42.666667 42.666667 0 0 1-42.666667-42.666667zM384 213.333333H307.626667A176.213333 176.213333 0 0 0 128 368.213333 170.666667 170.666667 0 0 0 298.666667 554.666667h85.333333a42.666667 42.666667 0 0 1 0 85.333333H307.626667a262.4 262.4 0 0 1-262.826667-222.293333A256 256 0 0 1 298.666667 128h85.333333a42.666667 42.666667 0 0 1 0 85.333333zM981.333333 416.426667A262.826667 262.826667 0 0 1 715.093333 640h-64.426666C616.106667 640 597.333333 620.8 597.333333 597.333333a42.666667 42.666667 0 0 1 42.666667-42.666666h76.373333A176.213333 176.213333 0 0 0 896 399.786667 170.666667 170.666667 0 0 0 725.333333 213.333333h-85.333333a42.666667 42.666667 0 0 1 0-85.333333h85.333333a256 256 0 0 1 256 288.426667z"  horiz-adv-x="1024" />

    
    <glyph glyph-name="lock" unicode="&#59259;" d="M512 256m-42.666667 0a42.666667 42.666667 0 1 1 85.333334 0 42.666667 42.666667 0 1 1-85.333334 0ZM725.333333 554.666667h-42.666666V635.306667a170.666667 170.666667 0 1 1-341.333334 0V554.666667H298.666667a128 128 0 0 1-128-128v-341.333334a128 128 0 0 1 128-128h426.666666a128 128 0 0 1 128 128v341.333334a128 128 0 0 1-128 128z m-298.666666 80.64A87.893333 87.893333 0 0 0 512 725.333333a87.893333 87.893333 0 0 0 85.333333-90.026666V554.666667h-170.666666zM512 128a128 128 0 1 0 128 128 128 128 0 0 0-128-128z"  horiz-adv-x="1024" />

    
    <glyph glyph-name="navigation" unicode="&#59267;" d="M853.333333 42.666667a40.106667 40.106667 0 0 0-23.466666 7.253333l-294.4 194.56a42.666667 42.666667 0 0 1-46.933334 0l-294.4-194.56a42.666667 42.666667 0 0 0-61.44 54.613333l341.333334 682.666667a42.666667 42.666667 0 0 0 75.946666 0l341.333334-682.666667a42.666667 42.666667 0 0 0-9.813334-51.2A42.666667 42.666667 0 0 0 853.333333 42.666667z"  horiz-adv-x="1024" />

    
    <glyph glyph-name="navigation-" unicode="&#59266;" d="M583.253333-42.666667h-2.56a42.666667 42.666667 0 0 0-39.253333 34.133334l-65.706667 322.986666a42.666667 42.666667 0 0 1-33.28 33.28L119.466667 413.44a42.666667 42.666667 0 0 0-5.12 82.346667l682.666666 227.413333A42.666667 42.666667 0 0 0 853.333333 669.013333l-227.413333-682.666666a42.666667 42.666667 0 0 0-42.666667-29.013334z"  horiz-adv-x="1024" />

    
    <glyph glyph-name="people" unicode="&#59269;" d="M384 426.666667a170.666667 170.666667 0 1 1-170.666667 170.666666 170.666667 170.666667 0 0 1 170.666667-170.666666zM725.333333 341.333333a128 128 0 1 1-128 128 128 128 0 0 1 128-128zM896 42.666667a42.666667 42.666667 0 0 1 42.666667 42.666666 213.333333 213.333333 0 0 1-343.893334 168.533334A298.666667 298.666667 0 0 1 85.333333 42.666667a42.666667 42.666667 0 0 1 42.666667-42.666667h512a42.666667 42.666667 0 0 1 42.666667 42.666667"  horiz-adv-x="1024" />

    
    <glyph glyph-name="person" unicode="&#59272;" d="M512 426.666667a170.666667 170.666667 0 1 1-170.666667 170.666666 170.666667 170.666667 0 0 1 170.666667-170.666666zM768 0a42.666667 42.666667 0 0 1 42.666667 42.666667 298.666667 298.666667 0 0 1-597.333334 0 42.666667 42.666667 0 0 1 42.666667-42.666667z"  horiz-adv-x="1024" />

    
    <glyph glyph-name="eye-off-" unicode="&#59251;" d="M759.893333 324.693333A381.013333 381.013333 0 0 1 896 570.88a42.666667 42.666667 0 1 1-85.333333 10.24 301.653333 301.653333 0 0 0-597.333334 0 42.666667 42.666667 0 1 1-85.333333-10.24 381.013333 381.013333 0 0 1 135.68-246.186667l-98.133333-98.986666a42.666667 42.666667 0 0 1 60.16-60.16l111.36 110.933333a386.56 386.56 0 0 1 132.266666-39.253333V85.333333a42.666667 42.666667 0 0 1 85.333334 0v151.893334a386.56 386.56 0 0 1 132.266666 39.253333l111.36-110.933333a42.666667 42.666667 0 0 1 60.16 60.16z"  horiz-adv-x="1024" />

    
    <glyph glyph-name="plus-circle" unicode="&#59276;" d="M512 810.666667a426.666667 426.666667 0 1 1 426.666667-426.666667A426.666667 426.666667 0 0 1 512 810.666667z m128-469.333334h-85.333333v-85.333333a42.666667 42.666667 0 0 0-85.333334 0v85.333333H384a42.666667 42.666667 0 0 0 0 85.333334h85.333333V512a42.666667 42.666667 0 0 0 85.333334 0v-85.333333h85.333333a42.666667 42.666667 0 0 0 0-85.333334z"  horiz-adv-x="1024" />

    
    <glyph glyph-name="phone" unicode="&#59277;" d="M742.4-42.666667A657.92 657.92 0 0 0 85.333333 614.4 196.266667 196.266667 0 0 0 281.6 810.666667a168.106667 168.106667 0 0 0 32.853333-2.986667 161.706667 161.706667 0 0 0 30.72-7.68 42.666667 42.666667 0 0 0 27.733334-32l58.453333-256a42.666667 42.666667 0 0 0-11.093333-39.253333c-5.546667-5.973333-5.973333-6.4-58.453334-33.706667a422.826667 422.826667 0 0 1 207.786667-208.64c27.733333 52.906667 28.16 53.333333 34.133333 58.88a42.666667 42.666667 0 0 0 39.253334 11.093333l256-58.453333a42.666667 42.666667 0 0 0 30.72-27.733333 185.173333 185.173333 0 0 0 8.106666-31.146667 203.52 203.52 0 0 0 2.56-32.426667A196.266667 196.266667 0 0 0 742.4-42.666667z"  horiz-adv-x="1024" />

    
    <glyph glyph-name="plus" unicode="&#59278;" d="M810.666667 426.666667h-256V682.666667a42.666667 42.666667 0 0 1-85.333334 0v-256H213.333333a42.666667 42.666667 0 0 1 0-85.333334h256v-256a42.666667 42.666667 0 0 1 85.333334 0v256h256a42.666667 42.666667 0 0 1 0 85.333334z"  horiz-adv-x="1024" />

    
    <glyph glyph-name="settings" unicode="&#59285;" d="M512 384m-64 0a64 64 0 1 1 128 0 64 64 0 1 1-128 0ZM933.973333 455.68L900.266667 563.2a96.426667 96.426667 0 0 1-122.88 64.426667l-14.506667-4.693334a74.24 74.24 0 0 0-67.84 11.093334l-4.693333 3.413333a75.093333 75.093333 0 0 0-29.44 61.013333v11.946667a101.12 101.12 0 0 1-29.013334 71.68 96.426667 96.426667 0 0 1-68.266666 28.586667h-108.8a98.986667 98.986667 0 0 1-97.706667-99.413334v-10.24a82.773333 82.773333 0 0 0-31.146667-64.426666l-5.546666-4.266667a82.346667 82.346667 0 0 0-75.946667-12.373333 91.306667 91.306667 0 0 1-71.68-5.12 93.013333 93.013333 0 0 1-47.786667-56.746667l-34.986666-110.933333a99.84 99.84 0 0 1 63.146666-125.44h6.826667a78.08 78.08 0 0 0 47.786667-52.053334l2.56-6.826666a87.893333 87.893333 0 0 0-9.813334-79.36 101.12 101.12 0 0 1 20.906667-140.8l88.32-66.986667a96 96 0 0 1 57.6-18.346667A85.333333 85.333333 0 0 1 384-42.666667a96 96 0 0 1 62.72 42.666667l9.813333 14.08a76.8 76.8 0 0 0 61.013334 32.853333 74.666667 74.666667 0 0 0 64-33.28l5.12-7.253333a95.573333 95.573333 0 0 1 137.386666-22.613333L810.666667 48.64a101.546667 101.546667 0 0 1 21.333333 137.813333l-11.093333 16.213334A85.333333 85.333333 0 0 0 810.666667 273.066667a80.64 80.64 0 0 0 51.626666 54.613333l8.533334 2.986667a100.693333 100.693333 0 0 1 63.146666 125.013333zM512 234.666667a149.333333 149.333333 0 1 0 149.333333 149.333333 149.333333 149.333333 0 0 0-149.333333-149.333333z"  horiz-adv-x="1024" />

    
    <glyph glyph-name="shopping-cart" unicode="&#59287;" d="M899.413333 597.333333a85.333333 85.333333 0 0 1-72.533333 42.666667H280.746667L256 736.426667A42.666667 42.666667 0 0 1 213.333333 768H128a42.666667 42.666667 0 0 1 0-85.333333h52.906667L298.666667 244.906667A42.666667 42.666667 0 0 1 341.333333 213.333333h384a42.666667 42.666667 0 0 1 37.973334 23.466667l139.946666 279.893333A85.333333 85.333333 0 0 1 899.413333 597.333333zM320 64m-64 0a64 64 0 1 1 128 0 64 64 0 1 1-128 0ZM746.666667 64m-64 0a64 64 0 1 1 128 0 64 64 0 1 1-128 0Z"  horiz-adv-x="1024" />

    
    <glyph glyph-name="shopping-bag" unicode="&#59289;" d="M858.453333 609.706667l-120.746666 120.746666A128 128 0 0 1 647.253333 768H376.746667a128 128 0 0 1-90.453334-37.546667L165.546667 609.706667A128 128 0 0 1 128 519.253333V128a128 128 0 0 1 128-128h512a128 128 0 0 1 128 128V519.253333a128 128 0 0 1-37.546667 90.453334zM512 213.333333a170.666667 170.666667 0 0 0-170.666667 170.666667 42.666667 42.666667 0 0 0 85.333334 0 85.333333 85.333333 0 0 1 170.666666 0 42.666667 42.666667 0 0 0 85.333334 0 170.666667 170.666667 0 0 0-170.666667-170.666667zM273.493333 597.333333l72.96 72.96A44.8 44.8 0 0 0 376.746667 682.666667h270.506666a44.8 44.8 0 0 0 30.293334-12.373334L750.506667 597.333333z"  horiz-adv-x="1024" />

    
    <glyph glyph-name="trash-" unicode="&#59295;" d="M896 640h-213.333333V711.253333A103.253333 103.253333 0 0 1 576 810.666667h-128A103.253333 103.253333 0 0 1 341.333333 711.253333V640H128a42.666667 42.666667 0 0 1 0-85.333333h42.666667v-469.333334a128 128 0 0 1 128-128h426.666666a128 128 0 0 1 128 128V554.666667h42.666667a42.666667 42.666667 0 0 1 0 85.333333zM426.666667 213.333333a42.666667 42.666667 0 0 0-85.333334 0v170.666667a42.666667 42.666667 0 0 0 85.333334 0z m0 497.92c0 6.826667 8.96 14.08 21.333333 14.08h128c12.373333 0 21.333333-7.253333 21.333333-14.08V640h-170.666666zM682.666667 213.333333a42.666667 42.666667 0 0 0-85.333334 0v170.666667a42.666667 42.666667 0 0 0 85.333334 0z"  horiz-adv-x="1024" />

    
    <glyph glyph-name="unlock" unicode="&#59298;" d="M512 256m-42.666667 0a42.666667 42.666667 0 1 1 85.333334 0 42.666667 42.666667 0 1 1-85.333334 0ZM725.333333 554.666667h-298.666666V640a85.333333 85.333333 0 0 0 170.666666 0 42.666667 42.666667 0 0 1 85.333334 0 170.666667 170.666667 0 0 1-341.333334 0v-85.333333H298.666667a128 128 0 0 1-128-128v-341.333334a128 128 0 0 1 128-128h426.666666a128 128 0 0 1 128 128v341.333334a128 128 0 0 1-128 128z m-213.333333-426.666667a128 128 0 1 0 128 128 128 128 0 0 0-128-128z"  horiz-adv-x="1024" />

    
    <glyph glyph-name="video-off" unicode="&#59299;" d="M606.72 168.533333L208.213333 567.04 133.12 640 128 648.533333A128 128 0 0 1 85.333333 554.666667v-341.333334a128 128 0 0 1 128-128h384a125.44 125.44 0 0 1 70.826667 21.76zM896 590.933333a72.533333 72.533333 0 0 1-78.933333-12.8l-91.733334-85.333333V554.666667a128 128 0 0 1-128 128H334.08l55.04-55.04 281.173333-281.173334 85.333334-85.333333 85.333333-85.333333a73.813333 73.813333 0 0 1 25.6-4.693334 71.68 71.68 0 0 1 29.44 6.4 68.266667 68.266667 0 0 1 42.666667 63.146667V527.786667a68.266667 68.266667 0 0 1-42.666667 63.146666zM725.333333 230.826667l-85.333333 85.333333L358.826667 597.333333l-85.333334 85.333334-72.533333 72.96a42.666667 42.666667 0 0 1-60.586667-60.586667l23.04-22.613333L238.506667 597.333333l398.506666-398.506666 62.293334-62.293334 123.733333-124.16a42.666667 42.666667 0 0 1 60.586667 0 42.666667 42.666667 0 0 1 0 60.586667z"  horiz-adv-x="1024" />

    
    <glyph glyph-name="video" unicode="&#59300;" d="M896 590.933333a72.533333 72.533333 0 0 1-78.933333-12.8l-91.733334-85.333333V554.666667a128 128 0 0 1-128 128H213.333333a128 128 0 0 1-128-128v-341.333334a128 128 0 0 1 128-128h384a128 128 0 0 1 128 128v61.866667l92.16-85.333333a74.24 74.24 0 0 1 49.493334-19.2 71.68 71.68 0 0 1 29.44 6.4 68.266667 68.266667 0 0 1 42.666666 63.146666V527.786667A68.266667 68.266667 0 0 1 896 590.933333z"  horiz-adv-x="1024" />

    
    <glyph glyph-name="volume-down" unicode="&#59301;" d="M886.613333 538.88a42.666667 42.666667 0 1 1-66.56-53.76 170.666667 170.666667 0 0 0 0-202.24A42.666667 42.666667 0 0 1 853.333333 213.333333a42.666667 42.666667 0 0 1 33.28 15.786667 256 256 0 0 1 0 309.76zM702.72 762.88a42.666667 42.666667 0 0 1-42.666667 0L384 573.013333H170.666667a42.666667 42.666667 0 0 1-42.666667-42.666666v-292.693334a42.666667 42.666667 0 0 1 42.666667-42.666666h213.333333l273.493333-187.733334A45.226667 45.226667 0 0 1 682.666667 0a42.666667 42.666667 0 0 1 42.666666 42.666667V725.333333a42.666667 42.666667 0 0 1-22.613333 37.546667z"  horiz-adv-x="1024" />

    
    <glyph glyph-name="volume-mute" unicode="&#59302;" d="M725.333333 0a45.226667 45.226667 0 0 0-24.32 7.253333L426.666667 194.986667H213.333333a42.666667 42.666667 0 0 0-42.666666 42.666666V530.346667a42.666667 42.666667 0 0 0 42.666666 42.666666h213.333334l273.493333 187.733334A42.666667 42.666667 0 0 0 768 725.333333v-682.666666a42.666667 42.666667 0 0 0-42.666667-42.666667z"  horiz-adv-x="1024" />

    
    <glyph glyph-name="volume-up" unicode="&#59303;" d="M779.946667 538.88a42.666667 42.666667 0 1 1-66.56-53.76 170.666667 170.666667 0 0 0 0-202.24A42.666667 42.666667 0 0 1 746.666667 213.333333a42.666667 42.666667 0 0 1 33.28 15.786667 256 256 0 0 1 0 309.76zM837.973333 672.853333a42.666667 42.666667 0 1 1-54.613333-65.706666A290.133333 290.133333 0 0 0 896 384a290.133333 290.133333 0 0 0-112.64-223.146667 42.666667 42.666667 0 0 1-5.546667-60.16A42.666667 42.666667 0 0 1 810.666667 85.333333a42.666667 42.666667 0 0 1 27.306666 9.813334A373.333333 373.333333 0 0 1 981.333333 384a373.333333 373.333333 0 0 1-143.36 288.853333zM617.386667 762.88a42.666667 42.666667 0 0 1-42.666667 0L298.666667 573.013333H85.333333a42.666667 42.666667 0 0 1-42.666666-42.666666v-292.693334a42.666667 42.666667 0 0 1 42.666666-42.666666h213.333334l273.493333-187.733334A45.226667 45.226667 0 0 1 597.333333 0a42.666667 42.666667 0 0 1 42.666667 42.666667V725.333333a42.666667 42.666667 0 0 1-22.613333 37.546667z"  horiz-adv-x="1024" />

    
    <glyph glyph-name="wifi" unicode="&#59304;" d="M512 85.333333m-42.666667 0a42.666667 42.666667 0 1 1 85.333334 0 42.666667 42.666667 0 1 1-85.333334 0ZM512 298.666667a213.333333 213.333333 0 0 1-148.053333-59.733334 42.666667 42.666667 0 1 1 59.306666-61.44 131.413333 131.413333 0 0 0 177.493334 0 42.666667 42.666667 0 1 1 59.306666 61.44A213.333333 213.333333 0 0 1 512 298.666667zM512 512a384 384 0 0 1-276.053333-117.333333A42.666667 42.666667 0 0 1 298.666667 335.36a298.666667 298.666667 0 0 0 430.08 0 42.666667 42.666667 0 0 1 30.293333-12.8 42.666667 42.666667 0 0 1 30.72 72.106667A384 384 0 0 1 512 512zM926.72 557.653333a597.333333 597.333333 0 0 1-829.44 0 42.666667 42.666667 0 0 1 58.88-61.44 512 512 0 0 0 711.68 0 42.666667 42.666667 0 0 1 29.44-11.946666 42.666667 42.666667 0 0 1 30.72 13.226666 42.666667 42.666667 0 0 1-1.28 60.16z"  horiz-adv-x="1024" />

    
    <glyph glyph-name="star" unicode="&#59305;" d="M749.226667 0a42.666667 42.666667 0 0 0-19.626667 4.693333L512 118.613333l-217.6-113.92a42.666667 42.666667 0 0 0-61.866667 45.226667l42.666667 240.213333-175.786667 170.666667a42.666667 42.666667 0 0 0-10.666666 42.666667 42.666667 42.666667 0 0 0 34.56 29.013333l243.2 35.413333 107.093333 218.88a42.666667 42.666667 0 0 0 76.8 0l108.373333-218.453333 243.2-35.413333a42.666667 42.666667 0 0 0 34.56-29.013334 42.666667 42.666667 0 0 0-10.666666-42.666666l-175.786667-170.666667 42.666667-240.213333a42.666667 42.666667 0 0 0-17.066667-42.666667 42.666667 42.666667 0 0 0-26.453333-7.68z"  horiz-adv-x="1024" />

    
    <glyph glyph-name="bnav_cla_def" unicode="&#58886;" d="M448 700v-252H196V700h252m20 36H176c-8.84 0-16-7.16-16-16v-292c0-8.84 7.16-16 16-16h292c8.84 0 16 7.16 16 16V720c0 8.84-7.16 16-16 16z m234-36c33.66 0 65.3-13.11 89.1-36.9 23.8-23.8 36.9-55.44 36.9-89.1s-13.11-65.3-36.9-89.1C767.3 461.1 735.66 448 702 448s-65.3 13.11-89.1 36.9C589.1 508.7 576 540.34 576 574s13.11 65.3 36.9 89.1c23.8 23.79 55.44 36.9 89.1 36.9m0 36c-89.47 0-162-72.53-162-162s72.53-162 162-162 162 72.53 162 162-72.53 162-162 162zM448 320v-252H196V320h252m20 36H176c-8.84 0-16-7.16-16-16v-292c0-8.84 7.16-16 16-16h292c8.84 0 16 7.16 16 16V340c0 8.84-7.16 16-16 16z m360-36v-252H576V320h252m20 36H556c-8.84 0-16-7.16-16-16v-292c0-8.84 7.16-16 16-16h292c8.84 0 16 7.16 16 16V340c0 8.84-7.16 16-16 16z"  horiz-adv-x="1024" />

    


  </font>
</defs>
</svg>
